<?xml version="1.0" standalone="no"?>
<!DOCTYPE svg PUBLIC "-//W3C//DTD SVG 1.1//EN" "http://www.w3.org/Graphics/SVG/1.1/DTD/svg11.dtd" >
<svg xmlns="http://www.w3.org/2000/svg">
<metadata>
This is a custom SVG webfont generated by Font Squirrel.
Copyright   : Copyright c 2007 by George Triantafyllakos All rights reserved
Designer    : George Triantafyllakos
Foundry     : George Triantafyllakos
Foundry URL : httpwwwbackpackergr
</metadata>
<defs>
<font id="webfontORAQs5ok" horiz-adv-x="1228" >
<font-face units-per-em="2048" ascent="1638" descent="-410" />
<missing-glyph horiz-adv-x="500" />
<glyph unicode=" " />
<glyph unicode="!" d="M203 193q0 43 16.5 80.5t44 65.5t65.5 43t81 15t80.5 -15t65.5 -43t44 -65.5t16 -80.5t-16 -81t-44 -66t-65.5 -44t-80.5 -16t-81 16t-65.5 44t-44 66t-16.5 81zM244 1432h311v-906h-303z" />
<glyph unicode="&#x22;" d="M225 1432h332l-31 -574h-270zM672 1432h332l-29 -574h-273z" />
<glyph unicode="#" d="M125 305v258h170v203h-170v254h170v291h258v-291h111v291h254v-291h184v-254h-184v-203h184v-258h-184v-305h-254v305h-111v-305h-258v305h-170zM553 563h111v203h-111v-203z" />
<glyph unicode="$" d="M176 244l98 241q33 -18 77 -37.5t93.5 -35t98.5 -25.5t90 -10q51 0 84 11t33 36q0 29 -61.5 53.5t-149.5 52.5q-66 20 -123.5 50t-100.5 68t-68.5 83t-25.5 96q0 141 79 214t196 98v274h276v-266q70 -8 136.5 -22.5t121.5 -32.5l-86 -261q-16 8 -51 18.5t-78 19t-89 14.5 t-85 6q-47 0 -80 -9.5t-33 -31.5q0 -16 34 -34.5t108 -45.5q66 -23 134 -49.5t123.5 -65.5t90.5 -94t35 -135q0 -123 -75 -195.5t-206 -99.5v-252h-276v250q-92 14 -174.5 45t-145.5 72z" />
<glyph unicode="%" d="M70 1143q0 66 18 124t54 102t88.5 69.5t119.5 25.5q12 0 24.5 -1t24.5 -3h750l-791 -1460h-266l674 1249h-152q14 -45 15 -106q0 -68 -18.5 -126.5t-54.5 -101.5t-88 -68.5t-118 -25.5q-68 0 -120 25.5t-88 68.5t-54 101.5t-18 126.5zM283 1143q0 -47 12 -78t55 -31 q45 0 56.5 31t11.5 78q0 39 -9.5 69.5t-50.5 38.5h-8q-43 0 -55 -31.5t-12 -76.5zM598 283q0 66 18.5 124t54.5 102t88 69.5t120 25.5q66 0 118 -25.5t87.5 -69.5t54 -102.5t18.5 -123.5q0 -68 -18.5 -126.5t-54 -101.5t-88 -68.5t-117.5 -25.5q-68 0 -120 25.5t-88 68.5 t-54.5 101.5t-18.5 126.5zM811 283q0 -47 12.5 -78t55.5 -31q45 0 56 31t11 78q0 45 -11 76.5t-56 31.5q-43 0 -55.5 -31.5t-12.5 -76.5z" />
<glyph unicode="&#x26;" d="M106 410q0 92 41 183t134 167q-47 70 -82 138.5t-35 133.5q0 96 29.5 166t79 114t111.5 65.5t128 21.5q63 0 123.5 -20.5t109 -61.5t77 -100.5t28.5 -135.5q0 -78 -24.5 -138t-64.5 -109.5t-91 -92.5l-103 -82q-74 -55 -131 -110t-57 -123q0 -47 16.5 -80t43 -54.5 t57 -31.5t61.5 -10q27 0 54.5 12t49 33.5t36 50.5t14.5 60l-144 -37l-53 196l557 160l51 -195l-145 -45q2 -18 2 -34v-35q0 -119 -46 -202t-112.5 -135t-141.5 -75.5t-132 -23.5q-104 0 -186 35.5t-138.5 95t-86.5 137.5t-30 162zM424 1026q0 -51 39 -117q45 35 80 80t35 92 q0 23 -21.5 36t-50.5 13q-31 0 -56.5 -25.5t-25.5 -78.5z" />
<glyph unicode="'" d="M449 1432h329l-26 -574h-273z" />
<glyph unicode="(" d="M473 672q0 135 28.5 266t86 250t143.5 221t199 178l151 -215q-174 -154 -257 -335t-83 -367q0 -193 84 -369t258 -324l-157 -215q-115 78 -200 180.5t-141.5 220.5t-84 247t-27.5 262z" />
<glyph unicode=")" d="M143 -23q174 160 259 339.5t85 369.5q0 186 -82.5 362.5t-248.5 323.5l143 221q109 -80 194 -181t144 -218t90 -245t31 -263t-32 -265t-90 -249t-142 -221.5t-189 -183.5z" />
<glyph unicode="*" d="M285 918v260l168 -21l-129 129l237 129l55 -168l54 164l241 -123l-135 -131l168 21v-260l-166 20l133 -125l-239 -131l-58 166q-8 -14 -15 -38l-14 -49l-14 -47q-6 -22 -12 -30l-237 129l131 125z" />
<glyph unicode="+" d="M96 424v260h383v422h273v-422h378v-260h-378v-424h-273v424h-383z" />
<glyph unicode="," d="M166 -170l88 541h356l-166 -559z" />
<glyph unicode="-" d="M135 432v273h959v-273h-959z" />
<glyph unicode="." d="M203 193q0 43 16.5 80.5t44 65.5t65.5 43t81 15q88 0 146 -58t58 -146q0 -43 -15 -81t-43 -66t-65.5 -44t-80.5 -16t-81 16t-65.5 44t-44 66t-16.5 81z" />
<glyph unicode="/" d="M70 -82l772 1514h315l-768 -1514h-319z" />
<glyph unicode="0" d="M84 651q0 139 38 261t107.5 212t167 142.5t217.5 52.5q123 0 221.5 -54.5t167 -146.5t105.5 -213t37 -254t-38 -254t-107.5 -213t-168 -146t-217.5 -54q-121 0 -218 52t-166.5 142t-107.5 212t-38 261zM352 641q0 -49 8.5 -96t26.5 -86l295 579q-35 12 -66 13 q-61 0 -110 -37t-83 -95.5t-52.5 -131t-18.5 -146.5zM547 266q20 -10 39.5 -13t36.5 -3q63 0 110 39t79 99.5t48.5 134t16.5 143.5q0 104 -35 170z" />
<glyph unicode="1" d="M90 1155l512 139h168v-1032h369v-262h-1030v262h389v725l-102 -28l-93 -24l-77 -21q-34 -9 -52 -15z" />
<glyph unicode="2" d="M117 1047q35 68 88 116.5t118.5 82.5t138.5 50.5t146 16.5q90 0 174 -25.5t148.5 -76t103.5 -127t39 -177.5q0 -88 -53 -182t-129 -181t-157 -161t-136 -119h512v-264h-983v154q37 41 102 101l141 129l151 142q77 74 139.5 144.5t102.5 134t40 110.5q0 41 -18.5 70 t-48 46.5t-69.5 25.5t-83 8q-86 0 -163 -39t-136 -125z" />
<glyph unicode="3" d="M121 84l86 227q76 -31 170 -55.5t180 -24.5q51 0 101.5 11.5t89 34t62.5 58.5t24 85q0 51 -30 80.5t-77 46t-104.5 21.5t-114.5 5h-133v222h151q117 0 177.5 45t60.5 98q0 33 -21.5 58.5t-55.5 42t-76 24.5t-81 8q-47 0 -93 -9t-84 -20.5t-63.5 -23.5t-33.5 -19l-72 224 q33 23 79 40t100.5 29.5t113 18.5t113.5 6q88 0 169 -17.5t143.5 -54.5t99 -96t36.5 -143q0 -94 -48 -156t-124 -123q47 -16 91 -47t77 -72t52.5 -93t19.5 -114q0 -98 -42 -174.5t-114.5 -131t-171 -83t-209.5 -28.5q-53 0 -112.5 7t-120 19.5t-115.5 30.5t-100 43z" />
<glyph unicode="4" d="M113 299v154l639 876h235v-780h127v-250h-127v-299h-272v299h-602zM457 549h258v362z" />
<glyph unicode="5" d="M113 121l112 241q80 -43 171 -67.5t169 -24.5q70 0 121 16.5t85 43t50.5 60.5t16.5 71q0 98 -70 151.5t-180 53.5q-55 0 -118.5 -10.5t-129.5 -45.5l-158 144l101 575h776l-66 -274h-471q-4 -39 -10 -71t-12 -89q43 10 78.5 12t72.5 2q113 0 200 -39t145.5 -101t88 -142 t29.5 -160q0 -88 -35 -173t-104.5 -151.5t-174 -107.5t-243.5 -41q-111 0 -225.5 33t-218.5 94z" />
<glyph unicode="6" d="M106 524q0 137 38 252t102.5 207t150.5 159.5t180.5 112.5t191.5 68t185 23l37 -269q-55 0 -142 -17.5t-175 -55t-164 -97t-109 -143.5q72 59 152 87t158 28q88 0 163.5 -29t131 -82t86 -132t30.5 -177q0 -109 -43 -195t-113.5 -147.5t-160.5 -94t-184 -32.5 q-96 0 -188.5 31.5t-165 97t-117 166t-44.5 239.5zM383 506q0 -53 17.5 -99.5t47 -80t70.5 -54t90 -20.5q45 0 87 15.5t75 43t53.5 64.5t20.5 82q0 51 -20.5 89t-53.5 64.5t-77 40t-89 13.5q-63 0 -122.5 -26t-98.5 -79v-53z" />
<glyph unicode="7" d="M117 1055l35 274h960v-203l-502 -1126h-297l463 1055h-659z" />
<glyph unicode="8" d="M127 375q0 86 50 174t163 166q-80 66 -117 135.5t-37 136.5q0 66 32 126.5t88 105.5t135 71.5t171 26.5t171 -26.5t137.5 -71.5t92.5 -104.5t34 -125.5t-37 -135.5t-123 -134.5q113 -78 163 -167t50 -177q0 -78 -35 -146.5t-98.5 -121t-152.5 -83t-196 -30.5 q-109 0 -198.5 30.5t-155 83t-101.5 121t-36 146.5zM430 403q0 -41 16.5 -71.5t44 -51t61.5 -30.5t71 -10t70.5 10t61 29.5t44 50t16.5 71.5q0 66 -48 127.5t-153 89.5q-94 -31 -139 -91.5t-45 -123.5zM457 979q0 -49 41 -98.5t118 -71.5q76 27 113 72t37 92 q0 29 -14.5 51.5t-37 37.5t-51 22.5t-59.5 7.5q-57 0 -102 -28t-45 -85z" />
<glyph unicode="9" d="M125 846q0 113 42 200t111.5 146t157.5 91t180 32q90 0 178.5 -32t157 -97.5t110.5 -166.5t42 -239q0 -147 -40 -263t-106.5 -204t-154.5 -150.5t-184.5 -101t-193.5 -56t-183 -17.5l-37 268q61 0 145 12.5t169 42t161 78.5t121 121q-59 -41 -132 -50t-137 -9 q-84 0 -157.5 27.5t-129 79.5t-88 125t-32.5 163zM401 848q0 -49 18.5 -85t49.5 -59.5t70 -34t79 -10.5q61 0 120 23t91 63q0 135 -52 217t-163 82q-39 0 -76.5 -13t-68.5 -37.5t-49.5 -61.5t-18.5 -84z" />
<glyph unicode=":" d="M182 193q0 43 16.5 80.5t44 65.5t65.5 43t81 15q88 0 147.5 -58t59.5 -146q0 -39 -16.5 -76t-44 -67t-64.5 -47t-80 -17q-104 0 -156.5 57.5t-52.5 149.5zM182 754q0 45 16.5 82.5t44 65.5t65.5 43.5t81 15.5q88 0 147.5 -57.5t59.5 -149.5q0 -43 -16.5 -81t-44 -65.5 t-65.5 -44t-81 -16.5t-81 16.5t-65.5 44t-44 65.5t-16.5 81z" />
<glyph unicode=";" d="M150 -170l88 541h389l-166 -559zM190 754q0 45 16.5 82.5t44.5 65.5t65.5 43.5t80.5 15.5t81 -15.5t65.5 -43.5t44 -65.5t16.5 -82.5q0 -43 -16.5 -81t-44 -65.5t-65.5 -44t-81 -16.5t-80.5 16.5t-65.5 44t-44.5 65.5t-16.5 81z" />
<glyph unicode="&#x3c;" d="M135 467v186l959 543v-338l-553 -297l553 -299v-336z" />
<glyph unicode="=" d="M135 152v272h959v-272h-959zM135 582v270h959v-270h-959z" />
<glyph unicode="&#x3e;" d="M135 -74v336l553 301l-281 149l-272 146v338l959 -543v-186z" />
<glyph unicode="?" d="M109 1147q33 72 78.5 124t101 87t115 51t120.5 16q76 0 146.5 -26.5t125 -76.5t87 -125t32.5 -173q0 -57 -23.5 -113.5t-67.5 -120t-109 -137.5l-150 -166l-219 162l115 124q51 54 87 98t55.5 80t19.5 71q0 61 -40 89t-91 28q-59 0 -97.5 -41t-75.5 -105zM313 193 q0 43 16.5 80.5t44 65.5t65.5 43t81 15t81 -15t65.5 -43t44 -65.5t16.5 -80.5t-16.5 -81t-44 -66t-65.5 -44t-81 -16t-81 16t-65.5 44t-44 66t-16.5 81z" />
<glyph unicode="@" d="M121 473q0 150 37 282t106.5 229t172 153.5t231.5 56.5q139 0 225 -56.5t134 -143.5t64.5 -191.5t16.5 -198.5t-17.5 -182t-49 -156.5t-76.5 -109.5t-101 -41q-115 0 -133 143q-29 -53 -74 -93t-102 -40q-59 0 -100 27.5t-68 73.5t-39 105.5t-12 125.5q0 117 24.5 202.5 t61.5 142t81 84t83 27.5q72 0 155 -47l9 58l116 -6l-17 -301q-7 -126 -7 -197q0 -55 2 -88t6 -50.5t8 -22.5t8 -5q25 0 45.5 28.5t35 78t22.5 113t8 130.5q0 72 -12.5 153t-46 148.5t-94 112.5t-156.5 45t-173 -47t-130.5 -127t-83 -187.5t-29.5 -228.5q0 -123 30.5 -216 t82 -154.5t117 -92t134.5 -30.5q53 0 112.5 11t125.5 38l45 -119q-86 -33 -154.5 -49.5t-136.5 -16.5q-98 0 -187 38t-155.5 117t-105.5 196.5t-39 277.5zM469 459q0 -33 6 -68t18.5 -62.5t28 -46t33.5 -18.5q66 0 96.5 45t43 115t15.5 152.5t13 158.5q-61 43 -109 43 q-61 0 -103 -76.5t-42 -242.5z" />
<glyph unicode="A" d="M61 0l349 1436h389l368 -1436h-299l-77 344h-357l-80 -344h-293zM498 602h221l-119 543z" />
<glyph unicode="B" d="M98 18v1383q53 12 108.5 20.5t108 14.5t95.5 8t71 2q129 0 234.5 -21.5t180.5 -67.5t116 -120t41 -180q0 -98 -38 -156.5t-91 -99.5q98 -55 152 -140.5t54 -183.5q0 -135 -48 -228t-133 -151.5t-199.5 -84t-247.5 -25.5q-98 0 -199 7t-205 23zM385 258q43 -8 82 -9t74 -1 q68 0 124 9t96 32.5t62.5 64.5t22.5 107q0 39 -22.5 69.5t-61.5 51t-91.5 31t-109.5 10.5q-88 0 -176 -25v-340zM385 842q68 -6 119 -6q90 0 142 16t79 42t34 58.5t7 65.5q0 92 -64.5 127t-169.5 35q-72 0 -147 -13v-325z" />
<glyph unicode="C" d="M70 717q0 174 53 311t143 231.5t208 144.5t249 50q45 0 93 -2t100.5 -12t108.5 -30.5t120 -57.5l-96 -250q-86 37 -148.5 50t-126.5 13q-102 0 -178 -37.5t-126 -99t-74.5 -141.5t-24.5 -164q0 -86 25.5 -169t76.5 -148.5t125 -105.5t172 -40q66 0 142.5 21.5t162.5 68.5 l84 -258q-199 -113 -411 -112q-135 0 -257 47t-216.5 140t-149.5 230.5t-55 319.5z" />
<glyph unicode="D" d="M78 25v1376q182 45 344 45q164 0 298 -41t230.5 -129t148.5 -226.5t52 -332.5q0 -219 -59.5 -360.5t-160 -223.5t-235.5 -114.5t-284 -32.5q-57 0 -145.5 10.5t-188.5 28.5zM367 274q45 -6 90 -6q199 0 303 113t104 336q0 240 -111.5 345t-322.5 105h-32q-15 0 -31 -2 v-891z" />
<glyph unicode="E" d="M125 0v1436h944v-271h-661v-299h550v-278h-550v-318h696v-270h-979z" />
<glyph unicode="F" d="M123 0v1436h983v-279h-696v-364h643v-279h-643v-514h-287z" />
<glyph unicode="G" d="M78 717q0 166 49 301t133 232.5t195.5 149.5t236.5 52q74 0 183.5 -28.5t244.5 -123.5l-157 -215q-98 59 -164 75t-107 16q-74 0 -135 -38t-105 -101.5t-69 -146.5t-25 -173q0 -98 30 -182t81 -147.5t115.5 -99.5t136.5 -36q37 0 77 9t74 30v268h-276v268h555v-682 q-104 -92 -217 -128.5t-223 -36.5q-125 0 -240 50t-202 145t-139 231.5t-52 310.5z" />
<glyph unicode="H" d="M104 0v1436h293v-576h432v576h293v-1436h-293v588h-432v-588h-293z" />
<glyph unicode="I" d="M86 0v258h391v920h-375v258h1020v-258h-358v-920h377v-258h-1055z" />
<glyph unicode="J" d="M104 -8v276q176 0 312.5 5.5t228.5 34t140.5 89t48.5 170.5v611h-674v258h962l-2 -912q-4 -197 -75.5 -304t-203.5 -157.5t-319 -60.5t-418 -10z" />
<glyph unicode="K" d="M45 0v1436h287v-566l479 566h354l-503 -592l520 -844h-328l-401 643l-121 -151v-492h-287z" />
<glyph unicode="L" d="M115 0v1436h291v-1178h708v-258h-999z" />
<glyph unicode="M" d="M86 0v1436h360l172 -856l187 856h336v-1436h-287v705l-131 -650h-213l-137 666v-721h-287z" />
<glyph unicode="N" d="M104 0v1436h285l445 -883v883h288v-1436h-286l-445 862v-862h-287z" />
<glyph unicode="O" d="M70 717q0 164 36.5 299t107.5 232.5t172 150.5t228 53q131 0 232.5 -56.5t171 -155.5t105.5 -233.5t36 -289.5q0 -164 -37 -299t-107.5 -231.5t-172 -149.5t-228.5 -53t-228 53t-172 149.5t-107.5 231.5t-36.5 299zM358 717q0 -217 70 -334t186 -117q123 0 189.5 117 t66.5 334t-69.5 332.5t-186.5 115.5q-123 0 -189.5 -115.5t-66.5 -332.5z" />
<glyph unicode="P" d="M92 0v1403q117 23 220.5 35t183.5 12q133 0 249.5 -32t202.5 -94t136.5 -155.5t50.5 -218.5q0 -164 -64.5 -271.5t-166 -172t-225.5 -90t-243 -25.5q-16 0 -29.5 1t-27.5 1v-393h-287zM379 668q16 -2 30 -2h27q68 0 141.5 11t133 42t98.5 83t39 134q0 70 -28.5 117 t-77 74.5t-112 39t-130.5 11.5q-31 0 -59.5 -2t-61.5 -7v-501z" />
<glyph unicode="Q" d="M70 717q0 164 36.5 299t107.5 232.5t172 150.5t228 53q131 0 232.5 -56.5t171 -155.5t105.5 -233.5t36 -289.5q0 -141 -27.5 -261t-80 -212t-128 -154.5t-173.5 -89.5q43 -59 113.5 -90t162.5 -62l-156 -251q-100 31 -170.5 81t-116.5 106t-71 113.5t-33 102.5 q-98 27 -174 89.5t-128 154.5t-79.5 212t-27.5 261zM365 717q0 -211 67.5 -326t181.5 -115q123 0 186.5 115t63.5 326t-68.5 324.5t-181.5 113.5q-121 0 -185 -113.5t-64 -324.5z" />
<glyph unicode="R" d="M55 0v1401q119 25 218.5 37t175.5 12q125 0 234.5 -24.5t191 -80t128 -144.5t46.5 -216q0 -141 -59.5 -236.5t-139.5 -152.5l324 -596h-332l-269 494q-49 -10 -107 -12.5t-118 -2.5v-479h-293zM348 737h31q211 0 297 60.5t86 177.5q0 61 -24.5 102t-66.5 65.5t-97.5 35 t-114.5 10.5q-53 0 -111 -6v-445z" />
<glyph unicode="S" d="M78 117l108 260q92 -45 208 -74t214 -29q57 0 101.5 14.5t73 37t44 48t15.5 48.5q0 51 -63.5 99t-174.5 93q-80 33 -163 71t-149.5 88t-108.5 116.5t-42 159.5q0 111 45 187.5t120 124.5t172 70.5t202 22.5q111 0 221.5 -27.5t210.5 -80.5l-104 -246q-68 35 -163 60.5 t-179 25.5q-88 0 -151.5 -35t-63.5 -98q0 -45 69.5 -82t173.5 -84l162 -76q82 -39 146.5 -89t105.5 -116.5t41 -159.5q0 -119 -44 -204.5t-120 -141t-175 -82t-210 -26.5q-125 0 -264 36t-258 89z" />
<glyph unicode="T" d="M86 1178v258h1055v-258h-377v-1178h-287v1178h-391z" />
<glyph unicode="U" d="M88 621v815h287v-797q0 -109 18.5 -180.5t50 -114.5t75.5 -60.5t95 -17.5q49 0 93.5 17.5t77 60.5t51 114.5t18.5 180.5v797h285v-815q0 -176 -39 -297t-107.5 -197t-165 -108.5t-209.5 -32.5q-115 0 -212 34.5t-167.5 110.5t-110.5 197t-40 293z" />
<glyph unicode="V" d="M41 1436h315l260 -1039l254 1039h318l-402 -1436h-344z" />
<glyph unicode="W" d="M66 1436h296l64 -949q4 23 10 69t12.5 101.5t14.5 114.5t14 112.5t12.5 93.5t10.5 56h250l75 -551q10 82 16.5 213t11.5 270.5t11 266.5t15 203h282l-135 -1436h-311l-88 524l-84 -524h-322z" />
<glyph unicode="X" d="M27 0l415 727l-397 709h334l242 -488l233 488h332l-385 -688q168 -283 260 -474.5t139 -273.5h-330l-254 520l-254 -520h-335z" />
<glyph unicode="Y" d="M51 1436h318l247 -691l250 691h312l-420 -973v-463h-285l-2 457z" />
<glyph unicode="Z" d="M104 0v184l621 994h-569v258h948v-185l-619 -993h637v-258h-1018z" />
<glyph unicode="[" d="M633 -164v1680h414v-246h-144v-1190h144v-244h-414z" />
<glyph unicode="\" d="M72 1432h297l788 -1514h-299z" />
<glyph unicode="]" d="M182 80h146v1190h-146v246h414v-1680h-414v244z" />
<glyph unicode="^" d="M205 1290l321 404h176l320 -404h-291l-119 168l-118 -168h-289z" />
<glyph unicode="_" d="M135 0v252h959v-252h-959z" />
<glyph unicode="`" d="M332 1307l127 276l436 -244l-88 -221z" />
<glyph unicode="a" d="M158 305q0 92 41 151.5t106.5 94.5t146 48t160.5 13q51 0 98.5 -4t90.5 -12v68q0 53 -47 88.5t-146 35.5q-92 0 -185 -19t-163 -48l-35 227q68 35 180.5 59.5t235.5 24.5q88 0 167 -17.5t137.5 -57t92 -106.5t33.5 -167v-684h-270v86q-59 -53 -139 -76.5t-166 -23.5 q-72 0 -133.5 18.5t-106.5 58t-71.5 99t-26.5 143.5zM424 305q0 -55 28.5 -70.5t75.5 -15.5q37 0 79 8.5t79 20.5t67.5 25.5t47.5 25.5v88q-29 10 -75 15.5t-99 5.5q-86 0 -144.5 -23t-58.5 -80z" />
<glyph unicode="b" d="M133 72v1394h270v-450q49 14 92.5 19t77.5 5q104 0 198.5 -32.5t167.5 -96t115 -160t42 -221.5q0 -131 -51.5 -231t-134.5 -169t-188.5 -104.5t-215.5 -35.5q-68 0 -161 12.5t-212 69.5zM403 264q29 -10 59 -13t58 -3q61 0 116.5 18.5t97.5 54t67.5 88t25.5 121.5 q0 66 -23.5 113t-63.5 78t-90 45t-103 14q-76 0 -144 -26v-490z" />
<glyph unicode="c" d="M145 518q0 98 33 192.5t101.5 170t175 122t252.5 46.5q80 0 156.5 -14.5t185.5 -63.5l-93 -244q-86 35 -141 43t-102 8q-72 0 -124 -22.5t-88 -59.5t-53.5 -83t-17.5 -93q0 -49 18.5 -95t56.5 -83t94 -59.5t130 -22.5q51 0 111.5 21.5t138.5 60.5l104 -242 q-109 -53 -194.5 -80.5t-181.5 -27.5q-145 0 -251 45t-175.5 118.5t-102.5 169t-33 193.5z" />
<glyph unicode="d" d="M131 502q0 100 32 199.5t102.5 177t181 126t268.5 48.5q27 0 53.5 -2t54.5 -7v422h273v-1466h-273v86q-63 -49 -127.5 -71.5t-126.5 -22.5q-109 0 -190.5 43t-137 114.5t-83 164t-27.5 188.5zM403 508q0 -53 13.5 -101.5t43 -86t75 -60t108.5 -22.5q43 0 89 14t91 49v498 q-49 12 -98 12q-88 0 -149.5 -26.5t-99.5 -69.5t-55.5 -97.5t-17.5 -109.5z" />
<glyph unicode="e" d="M113 514q0 135 46 234.5t118.5 164t165 96t184.5 31.5q111 0 199.5 -36.5t152 -111.5t98.5 -187.5t35 -266.5h-715q14 -51 45 -88t71 -60.5t88 -34.5t99 -11q80 0 162 25.5t148 62.5l100 -211q-59 -37 -119.5 -61.5t-117 -40t-106.5 -21.5t-89 -6q-127 0 -231.5 38 t-178 106.5t-114.5 164.5t-41 213zM416 629h420q-10 80 -74 127t-139 47q-39 0 -76 -12.5t-65.5 -36t-47 -55t-18.5 -70.5z" />
<glyph unicode="f" d="M119 0v242h225v540h-223l37 242h186v72q6 98 44 168.5t98.5 115.5t135 66.5t154.5 21.5q88 0 175 -23.5t159 -70.5l-102 -209q-37 16 -90.5 27.5t-106.5 11.5q-37 0 -73 -6t-62.5 -21.5t-43 -39t-16.5 -58.5v-55h437l-39 -242h-398v-540h457v-242h-954z" />
<glyph unicode="g" d="M133 483q0 150 45 256.5t124 176t183.5 102.5t223.5 33q98 0 190 -21.5t197 -62.5v-953q0 -111 -44 -191.5t-117 -132.5t-165 -77t-188 -25q-111 0 -220.5 39t-207.5 111l125 219q88 -43 170.5 -70.5t148.5 -27.5q27 0 67 6t77.5 27.5t64.5 61.5t27 105 q-113 -57 -236 -57q-94 0 -178 34t-147.5 97.5t-101.5 151t-38 198.5zM408 483q0 -111 62 -174t173 -63q51 0 93 11t89 40v489l-50 9q-26 4 -54 4q-66 0 -122 -19.5t-99 -58.5t-67.5 -98.5t-24.5 -139.5z" />
<glyph unicode="h" d="M143 0v1466h273v-587q61 82 143 121.5t168 39.5q70 0 134.5 -25.5t114.5 -74.5t79.5 -123t29.5 -170v-647h-272v629q0 78 -43 109.5t-102 31.5q-80 0 -149.5 -39t-102.5 -98v-633h-273z" />
<glyph unicode="i" d="M102 0v254h383v526h-383v244h654v-770h370v-254h-1024zM416 1348q0 78 53 132t131 54t132 -54.5t54 -131.5q0 -78 -54 -131.5t-132 -53.5t-131 53.5t-53 131.5z" />
<glyph unicode="j" d="M100 -70q166 0 300.5 6.5t228.5 36t145 88t51 162.5v537h-528v264h801v-752q0 -221 -67.5 -343t-194.5 -181t-313.5 -71.5t-422.5 -12.5v266zM758 1348q0 78 54 132t132 54t131 -54.5t53 -131.5q0 -78 -53 -131.5t-131 -53.5t-132 53.5t-54 131.5z" />
<glyph unicode="k" d="M102 0v1466h273v-776l291 334h381l-373 -373l452 -651h-340l-313 471l-98 -115v-356h-273z" />
<glyph unicode="l" d="M109 0v252h366v969h-330v245h605v-1214h368v-252h-1009z" />
<glyph unicode="m" d="M133 0v1024h264v-150q6 31 25.5 62t47.5 56.5t59.5 41t60.5 15.5q43 0 87 -41t58 -146q43 104 87 144.5t91 40.5q72 0 125.5 -72t53.5 -230v-745h-265v705q0 33 -12 48t-27 15q-16 0 -30.5 -17.5t-14.5 -45.5v-705h-264v705q0 35 -11 49t-28 14q-16 0 -29.5 -16.5 t-13.5 -44.5v-707h-264z" />
<glyph unicode="n" d="M143 0v1024h273v-145q61 82 143 121.5t168 39.5q70 0 134.5 -25.5t114.5 -74.5t79.5 -123t29.5 -170v-647h-272v629q0 78 -43 109.5t-102 31.5q-80 0 -149.5 -39t-102.5 -98v-633h-273z" />
<glyph unicode="o" d="M121 514q0 129 43 226.5t111.5 164t156.5 100t180 33.5q102 0 192.5 -32.5t158 -98t106.5 -164t39 -229.5q0 -127 -41 -225.5t-108.5 -165t-154.5 -101t-179 -34.5q-102 0 -194.5 33.5t-161 99t-108.5 165t-40 228.5zM391 514q0 -63 19.5 -113.5t52.5 -84t75 -52 t87 -18.5q43 0 83 18.5t70.5 53t49 85t18.5 111.5q0 129 -67.5 197.5t-166.5 68.5q-43 0 -83 -20.5t-70.5 -57t-49 -85t-18.5 -103.5z" />
<glyph unicode="p" d="M141 -326v1350h271v-82q59 47 116.5 67.5t116.5 20.5q111 0 194 -43t137 -112.5t81.5 -159.5t27.5 -185q0 -121 -44 -218t-116.5 -165.5t-169 -105.5t-200.5 -37q-74 0 -143 19v-349h-271zM412 250q27 -8 86 -8q66 0 124 16t101 51t68.5 89.5t25.5 131.5 q0 61 -21.5 109.5t-57.5 82.5t-82 51.5t-95 17.5q-70 0 -149 -35v-506z" />
<glyph unicode="q" d="M139 500q0 104 36 202.5t106.5 176t178 125t251.5 47.5q92 0 180 -21.5t199 -62.5v-1293h-273v359q-92 -39 -199 -39q-102 0 -189 38t-151.5 105.5t-101.5 160.5t-37 202zM412 504q0 -47 13 -95.5t44 -89t79 -66.5t118 -26q80 0 151 41v514q-23 4 -45 9.5t-51 5.5 q-78 0 -136.5 -24.5t-97 -65.5t-57 -94.5t-18.5 -108.5z" />
<glyph unicode="r" d="M90 0v248h258v522h-244v254h514v-113q45 59 115 91t150 32q137 0 256 -94l-105 -231q-39 23 -87 36t-99 13q-59 0 -118.5 -21.5t-111.5 -72.5v-416h304v-248h-832z" />
<glyph unicode="s" d="M176 121l98 241q33 -18 77 -37.5t93.5 -35t98.5 -25.5t90 -10q51 0 84 11t33 36q0 29 -61.5 53.5t-149.5 53.5q-66 20 -123.5 49.5t-100.5 67.5t-68.5 83t-25.5 97q0 94 37 157.5t97.5 101t139 53t162.5 15.5q98 0 196.5 -18.5t176.5 -44.5l-86 -260q-16 8 -51 18 t-78 18.5t-89 14.5t-85 6q-47 0 -80 -9t-33 -32q0 -16 34 -34.5t108 -45.5q66 -23 134 -49.5t123.5 -65t90.5 -94t35 -135.5q0 -152 -119 -229.5t-316 -77.5q-115 0 -235.5 35t-206.5 92z" />
<glyph unicode="t" d="M94 782l37 242h318v156l270 67v-223h411l-36 -242h-375v-250q0 -104 14.5 -159.5t58.5 -82t125.5 -30.5t217.5 -4v-264q-219 0 -353.5 23.5t-208 85t-99 166t-25.5 265.5v250h-355z" />
<glyph unicode="u" d="M152 465v559h268v-567q0 -66 14.5 -104t38 -58.5t53 -26.5t62.5 -6q74 0 130 24.5t85 53.5v684h274v-1024h-274v113q-70 -59 -147.5 -90t-155.5 -31q-70 0 -132.5 27.5t-110.5 85t-76.5 146.5t-28.5 214z" />
<glyph unicode="v" d="M102 1024h306l208 -733l211 733h297l-342 -1024h-336z" />
<glyph unicode="w" d="M115 1024h284l39 -606q4 29 9.5 79t9.5 110.5t10 126t10 123.5t9.5 102.5t9.5 64.5h245l56 -614l30 614h287l-135 -1024h-289l-67 473l-64 -473h-299z" />
<glyph unicode="x" d="M68 0l374 526l-360 498h338l190 -295l101 152l94 143h336l-367 -502l385 -522h-344l-207 322l-52 -79l-55 -85l-54 -84l-48 -74h-331z" />
<glyph unicode="y" d="M94 1024h299l211 -690l240 690h289l-551 -1399l-254 68l141 338z" />
<glyph unicode="z" d="M154 0v166l514 616h-482v242h861v-168l-510 -612h538v-244h-921z" />
<glyph unicode="{" d="M508 551v252q47 4 94 9t88 22q16 6 28.5 19t12.5 34q0 33 -33 71q-41 49 -77.5 109.5t-36.5 146.5q0 61 14 107.5t39 81.5t55.5 58.5t61.5 39.5q35 18 96 29.5t156 13.5l41 -256q-86 -2 -136.5 -18.5t-50.5 -57.5q0 -35 51 -92q41 -49 74 -104t33 -139q0 -66 -37 -122.5 t-115 -76.5q78 -39 116 -91t38 -110q0 -84 -33 -139t-74 -102q-53 -66 -53 -101q0 -18 17.5 -33.5t43 -24.5t55.5 -14.5t54 -5.5h19l-43 -250q-170 2 -250 41q-31 14 -61.5 40t-55.5 62t-40 82t-15 103q0 88 37.5 151.5t76.5 110.5q35 45 35 76q0 35 -43 45 q-23 8 -65.5 16.5t-116.5 16.5z" />
<glyph unicode="|" d="M475 -164v1680h277v-1680h-277z" />
<glyph unicode="}" d="M180 57h19q25 0 54.5 5.5t55 14.5t43 24.5t17.5 33.5q0 35 -54 101q-41 47 -73.5 102t-32.5 139q0 57 38 109.5t115 91.5q-78 20 -114.5 76.5t-36.5 122.5q0 84 32.5 139t73.5 104q51 57 52 92q0 41 -50.5 57.5t-136.5 18.5l41 256q94 -2 155.5 -13t96.5 -30 q31 -16 61.5 -39.5t55 -58.5t39 -81t14.5 -108q0 -86 -37 -146t-78 -110q-33 -39 -32 -71q0 -20 12 -33.5t29 -19.5q41 -18 91 -24.5t91 -6.5v-252q-74 -8 -117 -16.5t-65 -16.5q-43 -10 -43 -45q0 -31 34 -76q39 -47 77 -110.5t38 -151.5q0 -57 -15.5 -103t-40 -82 t-55 -61.5t-61.5 -40.5q-80 -39 -250 -41z" />
<glyph unicode="~" d="M82 315q12 84 52 150.5t93.5 112t113.5 69t116 23.5q51 0 93 -27t77 -57l65 -58q31 -27 62 -26q33 0 78 40t86 142l227 -66q-16 -78 -51 -146.5t-84 -120.5t-109.5 -82.5t-128.5 -30.5q-55 0 -100 24.5t-84 52.5l-72 54q-33 25 -65 24q-33 0 -67 -32.5t-73 -124.5z" />
<glyph unicode="&#xa0;" />
<glyph unicode="&#xa3;" d="M207 547v246h119v108q0 96 31.5 174t85 133.5t122 85t144.5 29.5q66 0 143.5 -23.5t169.5 -95.5l-152 -215q-29 23 -66.5 40.5t-74.5 17.5q-27 0 -50.5 -11.5t-42 -41t-28.5 -79t-10 -122.5h256v-246h-242q0 -37 -3 -79t-11 -83t-20.5 -78t-30.5 -61h471v-246h-803v184 q78 78 102.5 174.5t24.5 188.5h-135z" />
<glyph unicode="&#xa5;" d="M59 1311h314l243 -592q31 63 62 141l61 158l62 157q31 77 59 136h307l-325 -684h178v-221h-266v-41h266v-218h-268v-147h-273v147h-270v218h264v41h-264v221h176l-82 169l-86 183l-84 178z" />
<glyph unicode="&#xa9;" d="M109 631q0 111 37.5 210t105 172.5t161 117t201.5 43.5q109 0 202 -43.5t160.5 -117t105.5 -173t38 -209.5q0 -113 -38 -213.5t-105.5 -175t-160.5 -118.5t-202 -44t-202 44t-160.5 118.5t-105 175t-37.5 213.5zM283 631q0 -82 24.5 -151.5t68.5 -120t106.5 -79 t135.5 -28.5q74 0 135.5 28.5t105.5 79t68.5 120t24.5 151.5t-24.5 151.5t-68.5 119.5t-105.5 79t-135.5 29t-136 -29t-106 -79t-68.5 -119.5t-24.5 -151.5zM358 625q0 68 24 119t63.5 84.5t91 51t106.5 17.5q92 0 176 -47l-74 -162q-39 27 -86 27q-35 0 -61.5 -18.5 t-26.5 -59.5q0 -31 20.5 -57.5t61.5 -26.5q25 0 45.5 9t57.5 38l78 -147q-43 -43 -97.5 -63.5t-107.5 -20.5t-101.5 17t-86.5 50t-60.5 81.5t-22.5 107.5z" />
<glyph unicode="&#xad;" d="M135 432v273h959v-273h-959z" />
<glyph unicode="&#xae;" d="M199 903q0 86 32.5 162t89 133t132 90t161.5 33t162 -33t132.5 -90t89 -133t32.5 -162t-32.5 -161.5t-89 -131t-132.5 -88.5t-162 -33t-161.5 33t-132 88.5t-89 131t-32.5 161.5zM387 903q0 -45 18.5 -86t49 -71.5t71.5 -49t88 -18.5q45 0 86 18.5t73 49t50.5 71.5 t18.5 86t-18.5 87t-50.5 74t-73 50.5t-86 18.5q-47 0 -88 -18.5t-71.5 -50.5t-49 -74t-18.5 -87zM496 768v285q57 31 114 30q63 0 106.5 -32.5t43.5 -77.5q0 -23 -13.5 -47.5t-46.5 -46.5l70 -111h-123l-43 63v-63h-108zM608 918q33 0 33 28q0 12 -9 21.5t-24 9.5v-59z" />
<glyph unicode="&#x2000;" horiz-adv-x="845" />
<glyph unicode="&#x2001;" horiz-adv-x="1693" />
<glyph unicode="&#x2002;" horiz-adv-x="845" />
<glyph unicode="&#x2003;" horiz-adv-x="1693" />
<glyph unicode="&#x2004;" horiz-adv-x="563" />
<glyph unicode="&#x2005;" horiz-adv-x="421" />
<glyph unicode="&#x2006;" horiz-adv-x="280" />
<glyph unicode="&#x2007;" horiz-adv-x="280" />
<glyph unicode="&#x2008;" horiz-adv-x="210" />
<glyph unicode="&#x2009;" horiz-adv-x="337" />
<glyph unicode="&#x200a;" horiz-adv-x="92" />
<glyph unicode="&#x2010;" d="M135 432v273h959v-273h-959z" />
<glyph unicode="&#x2011;" d="M135 432v273h959v-273h-959z" />
<glyph unicode="&#x2012;" d="M135 432v273h959v-273h-959z" />
<glyph unicode="&#x2013;" d="M135 428v250h959v-250h-959z" />
<glyph unicode="&#x2014;" d="M135 428v250h959v-250h-959z" />
<glyph unicode="&#x2018;" d="M399 879l168 561l260 -25l-86 -536h-342z" />
<glyph unicode="&#x2019;" d="M401 897l86 535h338l-166 -560z" />
<glyph unicode="&#x201c;" d="M197 879l168 561l260 -25l-86 -536h-342zM606 879l168 561l256 -25l-86 -536h-338z" />
<glyph unicode="&#x201d;" d="M197 897l86 535h340l-166 -560zM604 897l88 535h338l-168 -560z" />
<glyph unicode="&#x2022;" d="M305 553q0 63 24.5 118.5t66.5 97.5t98.5 66.5t119.5 24.5t118.5 -24.5t97.5 -66.5t67 -97.5t25 -118.5t-25 -118.5t-67 -97.5t-97 -66.5t-119 -24.5q-63 0 -119.5 24.5t-98.5 66.5t-66.5 97.5t-24.5 118.5z" />
<glyph unicode="&#x2026;" d="M-35 193q0 88 59.5 146t145.5 58q88 0 146.5 -58t58.5 -146q0 -43 -15.5 -81t-43 -66t-65.5 -44t-81 -16t-81 16t-65.5 44t-43 66t-15.5 81zM410 193q0 43 16 80.5t44 65.5t65.5 43t80.5 15q88 0 146.5 -58t58.5 -146q0 -43 -15 -81t-43 -66t-66 -44t-81 -16t-80.5 16 t-65.5 44t-44 66t-16 81zM852 193q0 43 16.5 80.5t44 65.5t65.5 43t81 15t81 -15t65.5 -43t44 -65.5t16.5 -80.5t-16.5 -81t-44 -66t-65.5 -44t-81 -16t-81 16t-65.5 44t-44 66t-16.5 81z" />
<glyph unicode="&#x202f;" horiz-adv-x="337" />
<glyph unicode="&#x205f;" horiz-adv-x="421" />
<glyph unicode="&#x20ac;" d="M90 432v203h86v82h-86v194h88q25 109 75 194t120.5 143.5t157.5 88t186 29.5q78 0 172 -28.5t207 -112.5l-138 -219q-82 51 -138 70.5t-103 19.5q-88 0 -146.5 -49.5t-91.5 -135.5h459l-127 -194h-352v-82h315l-121 -203h-170q41 -94 103.5 -134t134.5 -40 q68 0 140.5 29.5t144.5 81.5l131 -224q-70 -47 -128.5 -78.5t-109.5 -50t-95 -25.5t-85 -7q-98 0 -185.5 28.5t-158 85t-121.5 140.5t-76 194h-88z" />
<glyph unicode="&#x2122;" d="M78 1130v220h450v-220h-84v-493h-262v493h-104zM526 637l43 713h232l45 -346q2 16 9 67l14.5 108.5l14.5 106.5l9 64h217l41 -713h-207l-16 362l-33 -266h-104l-35 266l-21 -362h-209z" />
<glyph unicode="&#xe000;" horiz-adv-x="1025" d="M0 1025h1025v-1025h-1025v1025z" />
<glyph unicode="&#xfb01;" horiz-adv-x="2457" d="M1331 0v254h383v526h-383v244h654v-770h370v-254h-1024zM1645 1348q0 78 53 132t131 54t132 -54.5t54 -131.5q0 -78 -54 -131.5t-132 -53.5t-131 53.5t-53 131.5zM119 0v242h225v540h-223l37 242h186v72q6 98 44 168.5t98.5 115.5t135 66.5t154.5 21.5q88 0 175 -23.5 t159 -70.5l-102 -209q-37 16 -90.5 27.5t-106.5 11.5q-37 0 -73 -6t-62.5 -21.5t-43 -39t-16.5 -58.5v-55h437l-39 -242h-398v-540h457v-242h-954z" />
<glyph unicode="&#xfb02;" horiz-adv-x="2457" d="M1338 0v252h366v969h-330v245h605v-1214h368v-252h-1009zM119 0v242h225v540h-223l37 242h186v72q6 98 44 168.5t98.5 115.5t135 66.5t154.5 21.5q88 0 175 -23.5t159 -70.5l-102 -209q-37 16 -90.5 27.5t-106.5 11.5q-37 0 -73 -6t-62.5 -21.5t-43 -39t-16.5 -58.5v-55 h437l-39 -242h-398v-540h457v-242h-954z" />
<glyph unicode="&#xfb03;" horiz-adv-x="3686" d="M2560 0v254h383v526h-383v244h654v-770h370v-254h-1024zM2874 1348q0 78 53 132t131 54t132 -54.5t54 -131.5q0 -78 -54 -131.5t-132 -53.5t-131 53.5t-53 131.5zM1348 0v242h225v540h-223l37 242h186v72q6 98 44 168.5t98.5 115.5t135 66.5t154.5 21.5q88 0 175 -23.5 t159 -70.5l-102 -209q-37 16 -90.5 27.5t-106.5 11.5q-37 0 -73 -6t-62.5 -21.5t-43 -39t-16.5 -58.5v-55h437l-39 -242h-398v-540h457v-242h-954zM119 0v242h225v540h-223l37 242h186v72q6 98 44 168.5t98.5 115.5t135 66.5t154.5 21.5q88 0 175 -23.5t159 -70.5l-102 -209 q-37 16 -90.5 27.5t-106.5 11.5q-37 0 -73 -6t-62.5 -21.5t-43 -39t-16.5 -58.5v-55h437l-39 -242h-398v-540h457v-242h-954z" />
<glyph unicode="&#xfb04;" horiz-adv-x="3686" d="M2567 0v252h366v969h-330v245h605v-1214h368v-252h-1009zM1348 0v242h225v540h-223l37 242h186v72q6 98 44 168.5t98.5 115.5t135 66.5t154.5 21.5q88 0 175 -23.5t159 -70.5l-102 -209q-37 16 -90.5 27.5t-106.5 11.5q-37 0 -73 -6t-62.5 -21.5t-43 -39t-16.5 -58.5v-55 h437l-39 -242h-398v-540h457v-242h-954zM119 0v242h225v540h-223l37 242h186v72q6 98 44 168.5t98.5 115.5t135 66.5t154.5 21.5q88 0 175 -23.5t159 -70.5l-102 -209q-37 16 -90.5 27.5t-106.5 11.5q-37 0 -73 -6t-62.5 -21.5t-43 -39t-16.5 -58.5v-55h437l-39 -242h-398 v-540h457v-242h-954z" />
</font>
</defs>
</svg>
