<?xml version="1.0" encoding="UTF-8" standalone="no"?>
<!-- Created with Inkscape (http://www.inkscape.org/) -->

<svg
   xmlns:dc="http://purl.org/dc/elements/1.1/"
   xmlns:cc="http://creativecommons.org/ns#"
   xmlns:rdf="http://www.w3.org/1999/02/22-rdf-syntax-ns#"
   xmlns:svg="http://www.w3.org/2000/svg"
   xmlns="http://www.w3.org/2000/svg"
   version="1.1"
   width="40"
   height="40"
   id="svg13203">
  <defs
     id="defs13205" />
  <metadata
     id="metadata13208">
    <rdf:RDF>
      <cc:Work
         rdf:about="">
        <dc:format>image/svg+xml</dc:format>
        <dc:type
           rdf:resource="http://purl.org/dc/dcmitype/StillImage" />
        <dc:title></dc:title>
      </cc:Work>
    </rdf:RDF>
  </metadata>
  <g
     transform="translate(0,-1012.3622)"
     id="layer1">
    <path
       d="m 34.759315,1027.6891 c 0,-0.02 -0.011,-0.036 -0.011,-0.055 -0.011,-0.035 -0.012,-0.07 -0.024,-0.1061 -0.011,-0.021 -0.012,-0.04 -0.02,-0.062 -0.011,-0.029 -0.021,-0.061 -0.032,-0.093 -0.011,-0.021 -0.019,-0.041 -0.028,-0.062 -0.012,-0.028 -0.027,-0.057 -0.043,-0.084 -0.011,-0.02 -0.024,-0.04 -0.036,-0.059 -0.018,-0.026 -0.036,-0.054 -0.054,-0.077 -0.013,-0.02 -0.029,-0.037 -0.043,-0.055 -0.021,-0.023 -0.04,-0.047 -0.064,-0.068 -0.018,-0.018 -0.032,-0.034 -0.05,-0.05 -0.024,-0.022 -0.048,-0.04 -0.072,-0.06 -0.02,-0.016 -0.037,-0.029 -0.058,-0.045 -0.011,0 -0.013,-0.013 -0.022,-0.016 l -13.5082,-8.9889 c -0.4267,-0.2845 -0.9823,-0.2845 -1.4089,0 l -13.50813,8.9882 c -0.01,0 -0.0141,0.013 -0.0204,0.016 -0.0193,0.016 -0.0388,0.028 -0.057,0.04 -0.0247,0.02 -0.0495,0.039 -0.072,0.06 -0.0183,0.017 -0.0345,0.032 -0.0506,0.05 -0.0227,0.022 -0.0431,0.045 -0.0624,0.079 -0.0151,0.02 -0.029,0.036 -0.0441,0.055 -0.0194,0.025 -0.0365,0.05 -0.0537,0.077 -0.0129,0.02 -0.0247,0.039 -0.0365,0.039 -0.0151,0.027 -0.029,0.055 -0.0431,0.084 -0.01,0.02 -0.0193,0.04 -0.0279,0.063 -0.01,0.03 -0.0227,0.06 -0.0323,0.079 -0.01,0.02 -0.0141,0.04 -0.0193,0.062 -0.01,0.036 -0.0151,0.07 -0.0227,0.1061 0,0.02 -0.0101,0.037 -0.0101,0.037 -0.01,0.054 -0.01,0.1106 -0.01,0.1659 v 9.0456 c 0,0.039 0,0.1208 0,0.1665 0,0 0,0.039 0,0.039 0.01,0.039 0,0.079 0.0399,0.1072 0.01,0.04 0,0.04 0.0399,0.061 0.01,0.04 0.0399,0.079 0.0399,0.079 0.01,0.039 0,0.039 0.0398,0.063 0.0141,0.04 0.0398,0.04 0.0398,0.084 0.01,0 0.0399,0.039 0.0399,0.039 0.0161,0.04 0.0398,0.04 0.0398,0.077 0.014,0 0.0399,0.04 0.0399,0.055 0.0193,0.039 0.0399,0.039 0.0796,0.079 0.0162,0 0.0399,0.04 0.0399,0.05 0.0227,0.039 0.0399,0.039 0.0796,0.06 0.0194,0 0.0399,0.039 0.0399,0.039 0.0101,0 0,0 0.0399,0.017 l 13.47673,9.0455 c 0.2133,0.1589 0.4776,0.1989 0.7164,0.2136 0.2452,0 0.4907,-0.07 0.7046,-0.2136 l 13.5085,-9.0058 c 0.011,0 0.013,-0.013 0.021,-0.016 0.02,-0.016 0.038,-0.028 0.058,-0.045 0.025,-0.02 0.049,-0.039 0.073,-0.06 0.018,-0.017 0.034,-0.032 0.051,-0.05 0.022,-0.022 0.042,-0.046 0.064,-0.068 0.016,-0.02 0.03,-0.035 0.042,-0.055 0.02,-0.024 0.037,-0.05 0.054,-0.077 0.011,-0.02 0.025,-0.039 0.037,-0.057 0.016,-0.027 0.029,-0.057 0.042,-0.084 0.011,-0.02 0.02,-0.041 0.028,-0.063 0.011,-0.031 0.022,-0.061 0.032,-0.094 0.011,-0.02 0.013,-0.041 0.02,-0.059 0.011,-0.035 0.017,-0.072 0.022,-0.1072 0,-0.02 0.011,-0.037 0.011,-0.054 0.011,-0.055 0.011,-0.1106 0.011,-0.1664 v -9.0064 c -0.011,-0.054 0,-0.094 -0.041,-0.1655 z m -13.497,-6.4665 9.9514,6.6338 -4.4448,2.9736 -5.5066,-3.6836 v -5.9237 z m -2.5402,0.014 v 5.9241 l -5.50602,3.6727 -4.44517,-2.9737 9.95119,-6.6336 z m -10.96784,8.999 3.17756,2.1254 -3.17756,2.1256 v -4.251 z m 10.96784,13.2602 -9.95119,-6.6163 4.44517,-2.973 5.50602,3.6827 v 5.9066 z m 1.2704,-8.1299 -4.49205,-3.0049 4.49205,-3.0046 4.4919,3.0046 -4.4919,3.0049 z m 1.2698,8.1299 v -5.9238 l 5.5066,-3.6826 4.4448,2.9731 -9.9514,6.6333 z m 10.9683,-9.0093 -3.1772,-2.1256 3.1772,-2.1255 v 4.2511 z"
       id="path8577"
       style="fill:#ffffff;display:inline;enable-background:new" />
  </g>
</svg>
