<?xml version="1.0" encoding="UTF-8" standalone="no"?>
<!-- Created with Inkscape (http://www.inkscape.org/) -->

<svg
   xmlns:dc="http://purl.org/dc/elements/1.1/"
   xmlns:cc="http://creativecommons.org/ns#"
   xmlns:rdf="http://www.w3.org/1999/02/22-rdf-syntax-ns#"
   xmlns:svg="http://www.w3.org/2000/svg"
   xmlns="http://www.w3.org/2000/svg"
   version="1.1"
   width="40"
   height="40"
   id="svg13203">
  <defs
     id="defs13205" />
  <metadata
     id="metadata13208">
    <rdf:RDF>
      <cc:Work
         rdf:about="">
        <dc:format>image/svg+xml</dc:format>
        <dc:type
           rdf:resource="http://purl.org/dc/dcmitype/StillImage" />
        <dc:title></dc:title>
      </cc:Work>
    </rdf:RDF>
  </metadata>
  <g
     transform="translate(0,-1012.3622)"
     id="layer1">
    <path
       d="m 8.885515,1020.6572 c -0.38569,-0.011 -0.56943,0.051 -0.56943,0.051 -1.23761,3.095 -0.47371,5.3865 -0.24128,5.9556 -1.45462,1.5699 -2.34105,3.5737 -2.34105,6.0307 0,1.855 0.21178,3.5206 0.7276,4.967 l 0.067,0.1818 0.37967,0.87 0.0949,0.174 c 1.44994,2.7028 4.30047,4.5094 9.39202,4.9987 2.6897,0.2585 5.2395,0.2244 7.6916,0.011 5.4292,-0.4794 8.0268,-2.2895 9.2261,-5.0104 l 0.075,-0.1781 0.3007,-0.8541 0.056,-0.1817 c 0.402,-1.4492 0.5219,-3.1157 0.5219,-4.9749 0,-2.6668 -1.0034,-4.7991 -2.6299,-6.4223 0.2844,-0.9176 0.6635,-2.9558 -0.3795,-5.5641 0,0 -1.837,-0.5869 -5.9992,2.1986 -1.6303,-0.4075 -3.3675,-0.605 -5.1053,-0.605 -1.9119,0 -3.84518,0.2413 -5.64706,0.7356 -2.95282,-2.0144 -4.77104,-2.3612 -5.61948,-2.3807 z m 16.30473,10.8554 c 1.5121,-0.017 2.805,0.1835 3.7686,1.0559 1.1683,1.0583 1.8547,2.3363 1.8547,3.7133 0,6.4291 -4.7936,6.6041 -10.705,6.6041 -5.91229,0 -10.70499,-0.8911 -10.70499,-6.6041 0,-1.3679 0.67331,-2.6357 1.82705,-3.6896 1.92454,-1.7566 5.18274,-0.8265 8.87794,-0.8265 1.8394,0 3.5694,-0.2362 5.0817,-0.2531 z m -10.87112,1.8903 c -1.23,0 -2.22644,1.4365 -2.22644,3.2071 0,1.7709 0.99644,3.2072 2.22644,3.2072 1.23001,0 2.23032,-1.4363 2.23032,-3.2072 0,-1.7704 -1.00031,-3.2059 -2.23032,-3.2071 z m 11.95062,0 c -1.2301,0 -2.2263,1.4365 -2.2263,3.2071 0,1.7709 0.9962,3.2072 2.2263,3.2072 1.23,0 2.2265,-1.4363 2.2265,-3.2072 0,-1.7704 -0.9965,-3.2059 -2.2265,-3.2071 z"
       id="cat"
       style="fill:#ffffff" />
  </g>
</svg>
