<?xml version="1.0" encoding="UTF-8" standalone="no"?>
<!-- Created with Inkscape (http://www.inkscape.org/) -->

<svg
   xmlns:dc="http://purl.org/dc/elements/1.1/"
   xmlns:cc="http://creativecommons.org/ns#"
   xmlns:rdf="http://www.w3.org/1999/02/22-rdf-syntax-ns#"
   xmlns:svg="http://www.w3.org/2000/svg"
   xmlns="http://www.w3.org/2000/svg"
   version="1.1"
   width="40"
   height="40"
   id="svg13203">
  <defs
     id="defs13205" />
  <metadata
     id="metadata13208">
    <rdf:RDF>
      <cc:Work
         rdf:about="">
        <dc:format>image/svg+xml</dc:format>
        <dc:type
           rdf:resource="http://purl.org/dc/dcmitype/StillImage" />
        <dc:title></dc:title>
      </cc:Work>
    </rdf:RDF>
  </metadata>
  <g
     transform="translate(0,-1012.3622)"
     id="layer1">
    <path
       d="m 16.05675,1018.9957 c -5.1956,-4e-4 -7.5965,3.5718 -7.5965,6.7267 0,2.7837 2.2613,5.567 5.9727,5.567 l 0.696,0 c -0.1853,0.3709 -0.1739,0.5564 -0.1739,0.928 0,0.9278 0.2088,1.4841 0.5799,1.8556 -2.4124,0.1855 -4.2564,0.696 -5.7412,1.6238 -2.5976,1.4841 -2.7835,3.5372 -2.7835,4.4651 5e-4,2.5979 2.4008,5.5669 7.5967,5.5669 6.6805,0 9.1045,-3.9087 9.1045,-7.2485 3e-4,-2.9696 -2.0529,-4.2221 -3.5374,-5.3351 -0.371,-0.1857 -0.7422,-0.3944 -0.9278,-0.5801 -0.3712,-0.1853 -0.7538,-0.5449 -0.7538,-1.1016 0,-0.5568 0.3826,-1.1486 0.7538,-1.3337 1.6702,-1.1137 2.9576,-2.3892 2.9576,-4.9873 0,-2.0411 -0.9396,-3.3169 -1.6817,-4.0593 l 1.3335,0 0.1742,-0.232 1.2757,-1.2758 0.5799,-0.5797 -7.8287,0 z m -1.4498,2.0875 c 2.7836,0 3.8855,3.7114 3.8855,5.5671 -5e-4,2.783 -2.6095,2.9573 -2.6095,2.9573 -2.5981,0 -3.7115,-3.1658 -3.7115,-5.393 0,-2.412 1.3222,-3.1314 2.4355,-3.1314 z m 12.8157,5.741 0,3.7113 -3.7112,0 0,1.8558 3.7112,0 0,3.7113 1.8559,0 0,-3.7113 3.7112,0 0,-1.8558 -3.7112,0 0,-3.7113 -1.8559,0 z m -10.612,8.8726 0.5799,0 c 2.4125,1.8552 3.3054,2.8181 3.3054,4.1171 0,1.8557 -1.6238,3.7113 -4.4074,3.7113 -3.7112,0 -5.567,-2.0765 -5.567,-4.1171 0,-1.8557 1.4849,-2.7602 2.7837,-3.1316 1.1138,-0.3708 2.7487,-0.5797 3.3054,-0.5797 z"
       id="path7312"
       style="fill:#ffffff" />
  </g>
</svg>
