<?xml version="1.0" encoding="UTF-8" standalone="no"?>
<svg
   xmlns:dc="http://purl.org/dc/elements/1.1/"
   xmlns:cc="http://creativecommons.org/ns#"
   xmlns:rdf="http://www.w3.org/1999/02/22-rdf-syntax-ns#"
   xmlns:svg="http://www.w3.org/2000/svg"
   xmlns="http://www.w3.org/2000/svg"
   xmlns:sodipodi="http://sodipodi.sourceforge.net/DTD/sodipodi-0.dtd"
   xmlns:inkscape="http://www.inkscape.org/namespaces/inkscape"
   version="1.1"
   id="svg8692"
   viewBox="0 0 596.02658 176.95748"
   height="49.941334mm"
   width="168.21194mm"
   inkscape:version="0.91 r13725"
   sodipodi:docname="lines_logo.svg">
  <sodipodi:namedview
     pagecolor="#ffffff"
     bordercolor="#666666"
     borderopacity="1"
     objecttolerance="10"
     gridtolerance="10"
     guidetolerance="10"
     inkscape:pageopacity="0"
     inkscape:pageshadow="2"
     inkscape:window-width="1194"
     inkscape:window-height="647"
     id="namedview11"
     showgrid="false"
     inkscape:zoom="0.63419991"
     inkscape:cx="298.01329"
     inkscape:cy="85.325161"
     inkscape:window-x="0"
     inkscape:window-y="27"
     inkscape:window-maximized="0"
     inkscape:current-layer="svg8692" />
  <defs
     id="defs8694" />
  <metadata
     id="metadata8697">
    <rdf:RDF>
      <cc:Work
         rdf:about="">
        <dc:format>image/svg+xml</dc:format>
        <dc:type
           rdf:resource="http://purl.org/dc/dcmitype/StillImage" />
        <dc:title />
      </cc:Work>
    </rdf:RDF>
  </metadata>
  <g
     transform="translate(115.15614,-203.88346)"
     id="layer1">
    <path
       style="display:inline;fill:#c10020;fill-opacity:1;stroke:none"
       d="m -115.15614,203.88346 29.087339,43.64951 78.8935434,0 c 1.4577364,-4.1236 5.3681035,-7.0783 9.9907736,-7.0783 5.8638303,0 10.617449,4.75328 10.617449,10.61745 0,4.62252 -2.954797,8.53279 -7.0782994,9.99073 l 0,39.00437 c 3.0163386,1.06617 5.3852584,3.43494 6.4515254,6.45158 l 39.55742,0 68.423559,-102.63534 -235.94331,0 z M 2.815516,246.35325 c -2.60619044,0 -4.7188661,2.11268 -4.7188661,4.71887 0,2.60619 2.11267566,4.71887 4.7188661,4.71887 2.6061905,0 4.7188662,-2.11268 4.7188662,-4.71887 0,-2.60619 -2.1126757,-4.71887 -4.7188662,-4.71887 z m -84.165353,8.25802 84.165353,126.22967 44.829229,-67.24384 -34.838554,0 c -1.457638,4.1236 -5.3680049,7.0783 -9.990675,7.0783 -5.8638302,0 -10.6174489,-4.75377 -10.6174489,-10.61745 0,-4.62252 2.9547967,-8.53279 7.0782993,-9.99073 l 0,-39.00437 c -3.0163386,-1.06617 -5.3852586,-3.43495 -6.451624,-6.45158 l -74.1745794,0 z m 84.165353,50.72781 c -2.60619044,0 -4.7188661,2.11268 -4.7188661,4.71887 0,2.60619 2.11267566,4.71886 4.7188661,4.71886 2.6061905,0 4.7188662,-2.11267 4.7188662,-4.71886 0,-2.60619 -2.1126757,-4.71887 -4.7188662,-4.71887 z"
       id="rect11177" />
    <path
       style="font-style:normal;font-variant:normal;font-weight:600;font-stretch:normal;font-size:20.72299957px;line-height:120.00000477%;font-family:'Source Sans Pro';-inkscape-font-specification:'Source Sans Pro, Semi-Bold';text-align:start;letter-spacing:5.04845762px;word-spacing:0px;writing-mode:lr-tb;text-anchor:start;fill:#100719;fill-opacity:1;stroke:none;stroke-width:1px;stroke-linecap:butt;stroke-linejoin:miter;stroke-opacity:1"
       d="M 573.41211 42.544922 C 570.15246 42.544922 567.13192 43.021936 564.34766 43.972656 C 561.6313 44.923376 559.28773 46.247573 557.31836 47.945312 C 555.34902 49.643026 553.78727 51.646178 552.63281 53.955078 C 551.54626 56.196078 551.00195 58.640596 551.00195 61.289062 C 551.00195 63.733796 551.37605 65.907154 552.12305 67.808594 C 552.93797 69.710067 553.991 71.372748 555.28125 72.798828 C 556.57153 74.224908 557.99668 75.448144 559.55859 76.466797 C 561.1884 77.485417 562.81941 78.334579 564.44922 79.013672 L 573.61719 82.986328 C 575.11119 83.597521 576.46905 84.207199 577.69141 84.818359 C 578.98169 85.429553 580.06835 86.110435 580.95117 86.857422 C 581.90189 87.536515 582.61448 88.350061 583.08984 89.300781 C 583.63313 90.251535 583.9043 91.405492 583.9043 92.763672 C 583.9043 95.344205 582.92054 97.416609 580.95117 98.978516 C 578.9818 100.54043 576.09586 101.32031 572.29297 101.32031 C 569.23705 101.32031 566.18089 100.64138 563.125 99.283203 C 560.06907 97.857123 557.35141 96.024203 554.97461 93.783203 L 548.04883 101.83008 C 551.24055 104.9539 554.90831 107.36475 559.05078 109.0625 C 563.26113 110.76021 567.60588 111.60938 572.08789 111.60938 C 575.82287 111.60937 579.15022 111.10065 582.07031 110.08203 C 585.05834 108.99548 587.5721 107.56837 589.60938 105.80273 C 591.71454 103.96919 593.30993 101.86511 594.39648 99.488281 C 595.483 97.111481 596.02734 94.564023 596.02734 91.847656 C 596.02734 89.402923 595.68691 87.263228 595.00781 85.429688 C 594.32873 83.528247 593.3786 81.865566 592.15625 80.439453 C 591.0018 79.013373 589.60833 77.756475 587.97852 76.669922 C 586.3487 75.583369 584.54945 74.633246 582.58008 73.818359 L 573.51562 70.048828 C 572.15744 69.505535 570.83325 68.963182 569.54297 68.419922 C 568.25272 67.808729 567.09678 67.163462 566.07812 66.484375 C 565.12741 65.737382 564.34752 64.921882 563.73633 64.039062 C 563.19307 63.088343 562.91992 61.968014 562.91992 60.677734 C 562.91992 58.233001 563.872 56.330836 565.77344 54.972656 C 567.67491 53.54657 570.22038 52.833984 573.41211 52.833984 C 576.26427 52.833984 578.84536 53.342675 581.1543 54.361328 C 583.4632 55.379948 585.70388 56.773416 587.87695 58.539062 L 593.88672 51 C 591.30619 48.419433 588.21637 46.382652 584.61719 44.888672 C 581.01801 43.326765 577.28292 42.544922 573.41211 42.544922 z M 252.03125 43.767578 L 252.03125 110.38672 L 291.55273 110.38672 L 291.55273 100.4043 L 263.8457 100.4043 L 263.8457 43.767578 L 252.03125 43.767578 z M 327.97656 43.767578 L 327.97656 110.38672 L 339.79297 110.38672 L 339.79297 43.767578 L 327.97656 43.767578 z M 381.44141 43.767578 L 381.44141 110.38672 L 392.74805 110.38672 L 392.74805 81.253906 C 392.74805 77.518886 392.54418 73.716516 392.13672 69.845703 C 391.79719 65.97489 391.49237 62.273474 391.2207 58.742188 L 391.62891 58.742188 L 398.45312 72.900391 L 419.23242 110.38672 L 431.35547 110.38672 L 431.35547 43.767578 L 420.04883 43.767578 L 420.04883 72.697266 C 420.04883 76.432252 420.21708 80.303907 420.55664 84.310547 C 420.96407 88.24926 421.30451 91.948756 421.57617 95.412109 L 421.16797 95.412109 L 414.34375 81.253906 L 393.5625 43.767578 L 381.44141 43.767578 z M 473.10547 43.767578 L 473.10547 110.38672 L 514.25781 110.38672 L 514.25781 100.4043 L 484.92188 100.4043 L 484.92188 80.744141 L 508.85938 80.744141 L 508.85938 70.761719 L 484.92188 70.761719 L 484.92188 53.75 L 513.24023 53.75 L 513.24023 43.767578 L 473.10547 43.767578 z "
       transform="translate(-115.15614,203.88345)"
       id="path7297" />
  </g>
</svg>
