<?xml version="1.0" encoding="UTF-8" standalone="no"?>
<!-- Created with Inkscape (http://www.inkscape.org/) -->

<svg
   xmlns:dc="http://purl.org/dc/elements/1.1/"
   xmlns:cc="http://creativecommons.org/ns#"
   xmlns:rdf="http://www.w3.org/1999/02/22-rdf-syntax-ns#"
   xmlns:svg="http://www.w3.org/2000/svg"
   xmlns="http://www.w3.org/2000/svg"
   version="1.1"
   width="40"
   height="40"
   id="svg13203">
  <defs
     id="defs13205" />
  <metadata
     id="metadata13208">
    <rdf:RDF>
      <cc:Work
         rdf:about="">
        <dc:format>image/svg+xml</dc:format>
        <dc:type
           rdf:resource="http://purl.org/dc/dcmitype/StillImage" />
        <dc:title></dc:title>
      </cc:Work>
    </rdf:RDF>
  </metadata>
  <g
     transform="translate(0,-1012.3622)"
     id="layer1">
    <path
       d="m 30.80725,1026.8958 c -0.204,9.3798 -6.1173,15.905 -15.0894,16.3128 -3.6703,0.2039 -6.3211,-1.0195 -8.7681,-2.4469 2.6508,0.4078 6.1173,-0.6117 7.9525,-2.2431 -2.6508,-0.2038 -4.2821,-1.6312 -5.0977,-3.8742 0.8156,0.2039 1.6312,0 2.243,0 -2.447,-0.8157 -4.0782,-2.243 -4.2822,-5.5055 0.6118,0.4078 1.4274,0.6116 2.243,0.6116 -1.8352,-1.0195 -3.0586,-4.8938 -1.6312,-7.3407 2.6508,2.8548 5.9133,5.3017 11.215,5.7095 -1.4273,-5.7095 6.3212,-8.7681 9.3799,-4.8939 1.4274,-0.2038 2.4468,-0.8156 3.4664,-1.2234 -0.4078,1.4274 -1.2234,2.243 -2.243,3.0586 1.0196,-0.2039 2.0392,-0.4078 2.8548,-0.8156 -0.204,1.0196 -1.2234,1.8352 -2.243,2.6508 z"
       id="path7280"
       style="fill:#ffffff" />
  </g>
</svg>
