<?xml version="1.0" standalone="no"?>
<!DOCTYPE svg PUBLIC "-//W3C//DTD SVG 1.1//EN" "http://www.w3.org/Graphics/SVG/1.1/DTD/svg11.dtd" >
<svg xmlns="http://www.w3.org/2000/svg">
<metadata>
This is a custom SVG webfont generated by Font Squirrel.
Copyright   : Copyright c 2007 by George Triantafyllakos All rights reserved
Designer    : George Triantafyllakos
Foundry     : George Triantafyllakos
Foundry URL : httpwwwbackpackergr
</metadata>
<defs>
<font id="webfontEN5FdZ8N" horiz-adv-x="1228" >
<font-face units-per-em="2048" ascent="1638" descent="-410" />
<missing-glyph horiz-adv-x="500" />
<glyph unicode=" " />
<glyph unicode="!" d="M324 141q6 66 57 111t117 45q61 0 101 -42t40 -114q-8 -66 -58.5 -111.5t-115.5 -45.5q-74 0 -107.5 48t-33.5 109zM420 420l104 1077h197l-123 -1077h-178z" />
<glyph unicode="&#x22;" d="M250 995l24 502h211l-77 -502h-158zM578 995l24 502h213l-78 -502h-159z" />
<glyph unicode="#" d="M-8 350l16 144h191l41 389h-191l14 141h191l35 332h145l-35 -332h283l35 332h141l-35 -332h209l-14 -141h-209l-41 -389h209l-16 -144h-209l-35 -350h-142l35 350h-282l-35 -350h-146l35 350h-190zM344 494h283l41 389h-283z" />
<glyph unicode="$" d="M109 287l86 131q25 -18 59.5 -34.5t74.5 -30t80 -20.5t76 -7q47 0 93.5 9t83 28.5t61.5 48t29 67.5q0 33 -19.5 58.5t-53.5 46t-77 37t-92 32.5q-55 18 -109.5 40t-96.5 51.5t-68.5 71.5t-26.5 102q0 68 24.5 120t65.5 89.5t96.5 61t114.5 34.5l20 198h152l-18 -190 q66 -4 130 -17.5t119 -31.5l-51 -154q-51 23 -122.5 38t-137.5 15q-43 0 -84 -6t-74.5 -21.5t-56 -41t-27.5 -64.5q0 -29 18.5 -51.5t48.5 -40.5t70 -33l83 -28l118.5 -46.5t103.5 -56.5t73.5 -76t27.5 -102q0 -74 -31.5 -132t-82 -100t-113 -67t-123.5 -33l-21 -192h-151 l20 190q-78 10 -157.5 38t-134.5 69z" />
<glyph unicode="%" d="M-12 0l805 1233h-283q8 -25 12 -48.5t4 -58.5q0 -74 -12 -147.5t-43 -133t-83 -97t-130 -37.5q-55 0 -92 20.5t-60.5 54t-34 73.5t-10.5 81q0 70 10.5 144.5t40 136t81 100.5t133.5 39h710l-891 -1360h-157zM199 969q0 -66 15 -93.5t58 -27.5q41 0 64.5 31.5t35 75.5 t14.5 89.5t3 73.5q0 49 -15.5 75t-56.5 30q-43 -2 -67.5 -29t-35.5 -65.5t-13 -81.5t-2 -78zM479 221q0 74 12.5 147.5t42 133t81 96.5t128.5 37q113 0 156 -62.5t43 -171.5q0 -70 -12 -142.5t-42 -132.5t-81 -99t-131 -39q-111 0 -154 60t-43 173zM612 227 q0 -53 16.5 -78.5t61.5 -25.5q43 0 65.5 32.5t34 76.5t13.5 91.5t2 75.5q0 49 -16.5 74t-59.5 25t-66.5 -32t-35 -75t-13.5 -89t-2 -75z" />
<glyph unicode="&#x26;" d="M154 346q0 133 67.5 244.5t181.5 193.5q-51 78 -78.5 151t-27.5 144q0 74 25.5 141.5t72.5 121t112.5 85t147.5 31.5q55 0 106.5 -17.5t90.5 -49t62.5 -78.5t23.5 -109q0 -104 -46 -181t-116.5 -140.5t-151.5 -117.5t-152 -111.5t-117 -124t-46 -154.5q0 -66 23.5 -112 t60.5 -76.5t83 -45t93 -14.5q59 0 111.5 23.5t91.5 65.5t61.5 98.5t22.5 121.5v31q0 14 -4 31l-182 -52l-31 119l500 142l35 -119l-168 -47q2 -16 3 -32.5t1 -33.5q0 -98 -33 -188t-93.5 -159t-147.5 -111t-195 -42q-96 0 -168 30t-121 81t-73.5 118.5t-24.5 141.5z M449 1096q0 -49 23.5 -105.5t57.5 -116.5l82 59q43 32 80 70.5t61.5 84t30.5 98.5q0 57 -43 89t-100 32q-41 0 -77 -17.5t-61.5 -47.5t-39.5 -67.5t-14 -78.5z" />
<glyph unicode="'" d="M414 995l24 502h211l-76 -502h-159z" />
<glyph unicode="(" d="M227 559q0 233 74 443t205 384q98 133 262 254l70 -116q-133 -102 -222 -221q-125 -168 -181 -357.5t-56 -378.5q0 -152 33.5 -267.5t81.5 -199.5q31 -59 74.5 -114.5t97.5 -106.5l-99 -117q-66 59 -117 124t-90 130q-51 98 -92 232.5t-41 310.5z" />
<glyph unicode=")" d="M225 -121q127 100 217 221q119 158 181.5 343.5t62.5 373.5q0 158 -37 277.5t-80 208.5q-61 119 -166 221l91 118q68 -63 120 -126.5t86 -129.5q53 -96 95.5 -232t42.5 -318q0 -229 -77 -437.5t-206 -382.5q-49 -66 -113.5 -130t-142.5 -122z" />
<glyph unicode="*" d="M211 1065l14 137h195l-96 178l133 68l78 -191l118 189l119 -66l-135 -178h176l-14 -137h-176l98 -176l-133 -70l-80 187l-117 -185l-119 68l134 176h-195z" />
<glyph unicode="+" d="M8 502l17 151h419l50 465h151l-49 -465h418l-17 -151h-417l-52 -502h-151l51 502h-420z" />
<glyph unicode="," d="M348 -203l123 469h234l-195 -481z" />
<glyph unicode="-" d="M111 502l16 151h805l-17 -151h-804z" />
<glyph unicode="." d="M381 123q0 37 14.5 68.5t39 55t56 37t66.5 13.5q61 0 100 -40t39 -99q-8 -78 -57 -126t-115 -48q-61 0 -102 40t-41 99z" />
<glyph unicode="/" d="M-45 -94l975 1591h182l-975 -1591h-182z" />
<glyph unicode="0" d="M94 518q0 86 8.5 183.5t29 191.5t56 180t91 150.5t131 103.5t178.5 39q98 0 163.5 -47t105.5 -124t57.5 -173t17.5 -193q0 -86 -8.5 -182t-30 -190.5t-56 -180.5t-89 -151.5t-130 -104t-176.5 -38.5q-96 0 -162.5 46t-107.5 121.5t-59.5 172t-18.5 196.5zM246 539 q0 -37 1 -75t5 -73l465 742q-23 39 -58.5 61.5t-87.5 22.5q-76 0 -128 -36t-89 -93.5t-58.5 -131t-32.5 -149.5t-14 -146.5t-3 -121.5zM309 207q23 -37 58.5 -58.5t89.5 -21.5q74 0 126 36t89 95t57.5 133t32.5 149.5t15 145.5t3 121q0 35 -2 69.5t-6 69.5z" />
<glyph unicode="1" d="M82 0l14 141h328l108 1030q-45 -12 -83 -26l-76 -29l-74 -27q-37 -13 -80 -26l-33 137l414 137h100l-125 -1196h306l-15 -141h-784z" />
<glyph unicode="2" d="M82 0l10 109l141 129q74 68 163 162t166 198t129 212t52 204q0 98 -57 149t-147 51q-66 0 -119 -34.5t-117 -104.5l-127 72q100 111 192.5 164t196.5 53q70 0 131.5 -20.5t106.5 -61.5t70.5 -102.5t25.5 -145.5q0 -80 -27.5 -165t-73.5 -168t-104.5 -163.5t-122 -152.5 t-125.5 -133l-112 -109h553l-15 -143h-790z" />
<glyph unicode="3" d="M111 82l73 123q59 -37 129 -53.5t136 -16.5q61 0 118.5 19.5t100.5 58.5t68.5 97.5t25.5 135.5q0 41 -13.5 82t-45 73t-84 51.5t-130.5 19.5q-12 0 -26 -1t-66 -5l17 161q61 2 119.5 12.5t104.5 35t73.5 68.5t27.5 112q0 98 -48 137t-116 39q-72 0 -145.5 -35t-116.5 -86 l-75 111q66 72 162 111.5t194 39.5q59 0 113.5 -16.5t94.5 -50t63.5 -88t23.5 -127.5q0 -51 -15.5 -101.5t-43 -93.5t-67.5 -77t-91 -48q66 -12 111.5 -49t74.5 -82t42 -94t13 -86q0 -113 -41 -200t-110.5 -147.5t-158.5 -91t-183 -30.5q-80 0 -158.5 22.5t-150.5 69.5z" />
<glyph unicode="4" d="M117 346l10 94l588 897h151l-88 -841h148l-17 -150h-147l-35 -346h-152l35 346h-493zM338 498h83q32 0 58.5 -1t59.5 -1h88l59 544z" />
<glyph unicode="5" d="M90 90l80 135q55 -43 114.5 -63.5t114.5 -20.5q68 0 128.5 27t105.5 75t71.5 115.5t26.5 149.5q0 47 -12 90t-40 76t-71 52t-102 19q-33 0 -79 -8t-97 -28l-76 71l133 557h518l-16 -151h-395l-68 -305l57 8q29 4 52 4q94 0 162.5 -28.5t112.5 -77t64.5 -113t20.5 -133.5 q0 -117 -41 -217.5t-111.5 -174t-163 -115.5t-194.5 -42q-72 0 -147.5 23.5t-147.5 74.5z" />
<glyph unicode="6" d="M111 418q0 176 48 342t143 296t236.5 210t327.5 84l-16 -148q-84 0 -166 -22.5t-153.5 -79t-132 -153.5t-101.5 -247q51 78 120.5 123t155.5 45q82 0 140.5 -30.5t96.5 -81.5t55.5 -117t17.5 -135q0 -92 -31 -185.5t-88 -167t-137 -119.5t-181 -46q-66 0 -126 23.5 t-106 74.5t-74.5 134t-28.5 200zM260 412q0 -53 8 -103.5t31 -89.5t63.5 -62.5t106.5 -23.5q59 0 106.5 33t80 83t50 113.5t17.5 124.5q0 47 -11.5 90.5t-34 76t-57 52t-83.5 19.5q-88 0 -155 -49t-112 -127q-4 -33 -7 -67.5t-3 -69.5z" />
<glyph unicode="7" d="M143 1186l17 151h733l-10 -94l-477 -1243h-164l446 1186h-545z" />
<glyph unicode="8" d="M80 309q0 68 21.5 135.5t62.5 127t98 105.5t131 68q-96 59 -139 137.5t-43 155.5q0 63 25.5 123t73.5 106t113.5 73.5t145.5 27.5q74 0 129.5 -23.5t90 -61.5t52 -88t17.5 -105q0 -53 -16.5 -106.5t-47 -99.5t-75.5 -81t-103 -53q125 -53 181.5 -144.5t56.5 -191.5 q0 -78 -30.5 -153t-87 -134t-135.5 -96t-173 -37q-92 0 -157.5 25.5t-107.5 69.5t-62.5 101.5t-20.5 118.5zM236 342q0 -41 12 -77t37.5 -62.5t65.5 -43t98 -16.5q63 0 109 22.5t77 59.5t45 84t14 97q0 45 -11 88t-35.5 79.5t-63.5 64.5t-95 40q-55 -10 -102 -45t-81 -82 t-52 -102.5t-18 -106.5zM358 1020q0 -66 38 -124t120 -81q43 6 79 31.5t62.5 61.5t41 79t14.5 84q0 61 -37 106.5t-123 45.5q-47 0 -84 -17.5t-61.5 -46.5t-37 -64.5t-12.5 -74.5z" />
<glyph unicode="9" d="M109 870q0 92 31.5 181.5t89 159t137 112.5t178.5 43q66 0 129 -24.5t113.5 -79t81 -139.5t30.5 -208q0 -199 -49 -367.5t-147.5 -292.5t-243 -195.5t-334.5 -73.5l14 147q86 0 173 23.5t166 80t142.5 152.5t104.5 242q-23 -23 -52.5 -48.5t-66.5 -47t-84 -36t-106 -14.5 q-72 0 -128.5 34t-96 89.5t-61 123.5t-21.5 138zM266 872q0 -49 11.5 -93t35 -77.5t58.5 -54t84 -20.5q92 0 168.5 51t136.5 127q2 14 2 38v40q0 61 -10.5 120.5t-38 106.5t-74.5 77t-119 30q-59 0 -106 -31t-80 -80t-50.5 -111t-17.5 -123z" />
<glyph unicode=":" d="M340 119q0 37 14.5 69.5t39 56t56 38t66.5 14.5q61 0 100 -40t39 -99q-6 -72 -55 -123t-115 -51q-72 0 -108.5 38t-36.5 97zM410 776q8 80 58 127t116 47q61 0 101 -40t40 -99q0 -37 -14.5 -68.5t-38 -55t-55 -38t-66.5 -14.5q-61 0 -101 41t-40 100z" />
<glyph unicode=";" d="M266 -203l125 469h271l-195 -481zM403 776q8 80 58.5 127t116.5 47q61 0 102 -40t41 -99q0 -37 -14.5 -68.5t-39 -55t-56 -38t-66.5 -14.5q-61 0 -101.5 41t-40.5 100z" />
<glyph unicode="&#x3c;" d="M25 510l12 117l1003 538l-20 -202l-772 -392l344 -200l344 -197l-21 -201z" />
<glyph unicode="=" d="M10 295l15 151h948l-15 -151h-948zM49 674l17 151h948l-17 -151h-948z" />
<glyph unicode="&#x3e;" d="M25 -27l18 201l776 397l-692 392l20 202l893 -538l-12 -117z" />
<glyph unicode="?" d="M170 1229q84 111 187.5 163t201.5 52q66 0 126 -23.5t106.5 -68.5t74 -107.5t27.5 -140.5q0 -88 -47 -185.5t-114.5 -188.5t-141.5 -170l-127 -132l-111 90l127 130q68 71 126.5 145.5t96 151.5t37.5 147q0 98 -61.5 150t-145.5 52q-55 0 -115.5 -32.5t-119.5 -106.5z M260 141q6 66 57.5 111t116.5 45q61 0 101 -42t40 -114q-8 -66 -58 -111.5t-116 -45.5q-74 0 -107.5 48t-33.5 109z" />
<glyph unicode="@" d="M4 358q0 141 40 290t118 270.5t195.5 198.5t275.5 77q117 0 191.5 -40t117.5 -105.5t59.5 -148.5t16.5 -169q0 -94 -20.5 -202.5t-59.5 -200.5t-95.5 -152.5t-127.5 -60.5q-115 0 -117 143q-35 -53 -84 -93t-106 -40q-51 0 -87 21.5t-58.5 57.5t-33 84t-10.5 101 q0 61 18.5 151.5t55.5 173.5t93 141t134 58q74 0 152 -47l14 58l113 -39q-27 -152 -54.5 -292t-27.5 -282q0 -25 3 -41t13 -16q33 0 60.5 46t48 114.5t32 146.5t11.5 139q0 66 -11.5 130.5t-41 116.5t-82 84t-132.5 32q-125 0 -215 -69.5t-149 -173t-88 -221.5t-29 -214 q0 -102 25.5 -178t68.5 -126t100.5 -75.5t121.5 -25.5q53 0 113.5 11t129.5 38l33 -119q-88 -33 -158.5 -49.5t-138.5 -16.5q-90 0 -168 32t-136 95.5t-91 159.5t-33 227zM354 424q0 -31 4 -59.5t13.5 -51t22 -36t28.5 -13.5q66 0 101.5 45t55 115t31 152.5t29.5 158.5 q-55 43 -104 43t-84 -43t-56.5 -100t-31 -117.5t-9.5 -93.5z" />
<glyph unicode="A" d="M61 0l508 1434h174l209 -1434h-157l-66 475h-348l-162 -475h-158zM440 621h262l-69 589z" />
<glyph unicode="B" d="M102 12l148 1401l73 14q32 6 59.5 10.5t55 6.5t58.5 2q100 0 174.5 -25.5t123 -66.5t72 -96.5t23.5 -112.5q0 -135 -69.5 -217t-205.5 -129q63 -16 117.5 -44t94.5 -71t62.5 -103.5t22.5 -142.5q0 -100 -43 -184t-120.5 -143.5t-184 -93t-235.5 -33.5q-61 0 -117 7 t-109 21zM272 143q35 -4 47.5 -7t40.5 -3q186 0 288 87t102 235q0 49 -19.5 93t-59.5 79t-100.5 55t-144.5 20h-14q-4 0 -11.5 -1t-22.5 -1h-48zM346 846q186 0 292.5 75.5t106.5 202.5q0 70 -63.5 122t-206.5 52h-23q-9 0 -16.5 -1t-16.5 -3t-26 -4z" />
<glyph unicode="C" d="M82 551q0 158 42 318.5t117.5 290.5t181 212t232.5 82q66 0 136.5 -25.5t146.5 -82.5l-96 -117q-100 66 -185 65q-104 0 -183 -72.5t-133 -180t-82 -228.5t-28 -217q0 -102 21.5 -188t60.5 -148.5t94.5 -97.5t122.5 -35q57 0 123 26.5t138 86.5l61 -127 q-92 -68 -177 -98.5t-163 -30.5q-94 0 -173 41t-136.5 116.5t-89 179t-31.5 230.5z" />
<glyph unicode="D" d="M61 12l148 1401l73 14q32 6 59.5 10.5t54 6.5t57.5 2q133 0 228 -46t156.5 -124t90 -181.5t28.5 -215.5q0 -193 -49 -357t-137 -283.5t-211 -187t-272 -67.5q-63 0 -118 6t-108 22zM231 143q35 -4 47.5 -7t40.5 -3q98 0 186.5 60.5t155 162t104.5 234.5t38 278 q0 90 -21.5 169t-65.5 137.5t-115 91t-169 32.5h-22q-8 0 -15.5 -1t-16.5 -3t-26 -4z" />
<glyph unicode="E" d="M123 0l149 1434h664l-14 -146h-508l-49 -465h450l-16 -145h-451l-55 -533h547l-15 -145h-702z" />
<glyph unicode="F" d="M123 0l149 1434h664l-14 -146h-508l-54 -504h451l-16 -145h-451l-65 -639h-156z" />
<glyph unicode="G" d="M92 637q0 154 40 301t112.5 262t174 184.5t222.5 69.5q70 0 144.5 -25.5t154.5 -82.5l-96 -117q-59 37 -110.5 53t-98.5 16q-102 0 -177 -69.5t-123 -173t-70.5 -223t-22.5 -218.5q0 -96 15 -184t48 -154.5t80 -106.5t113 -40q90 0 213 74l43 409h-217l14 146h373 l-64 -619q-102 -82 -195.5 -120.5t-177.5 -38.5q-102 0 -176.5 50t-123 137t-72 208t-23.5 262z" />
<glyph unicode="H" d="M82 0l149 1434h156l-63 -611h411l64 611h155l-149 -1434h-156l70 678h-412l-69 -678h-156z" />
<glyph unicode="I" d="M123 0l14 145h293l121 1143h-275l15 146h684l-14 -146h-254l-121 -1143h274l-14 -145h-723z" />
<glyph unicode="J" d="M102 -10l13 145q127 0 214 2t144 13.5t90 34t51.5 64.5t27.5 106.5t20 156.5l81 776h-444l14 146h600l-100 -930q-16 -127 -33.5 -214t-47.5 -143.5t-77 -88t-120.5 -47t-179.5 -18.5t-253 -3z" />
<glyph unicode="K" d="M82 0l149 1434h156l-70 -670l474 668l194 2l-379 -535l328 -899h-174l-271 756l-196 -252l-55 -504h-156z" />
<glyph unicode="L" d="M143 0l150 1434h156l-136 -1289h588l-14 -145h-744z" />
<glyph unicode="M" d="M20 0l150 1434h209l98 -1153l334 1153h205l-150 -1434h-153l110 1069l-297 -1030h-155l-82 1036l-113 -1075h-156z" />
<glyph unicode="N" d="M61 0l150 1434h186l297 -1125l105 1125h155l-149 -1434h-187l-284 1141l-117 -1141h-156z" />
<glyph unicode="O" d="M68 608q0 88 10 185.5t34.5 191.5t64.5 179t98.5 148.5t137.5 101.5t181 38q119 0 188.5 -61.5t106.5 -155.5t47 -208t10 -220q0 -158 -25.5 -306.5t-86 -264t-156.5 -185t-238 -69.5q-109 0 -180.5 56t-114.5 145t-60 201.5t-17 223.5zM223 623q0 -76 9.5 -163t35 -161 t70.5 -122t117 -48q74 0 127 36t91 93t60.5 129t35.5 145.5t17.5 140t4.5 113.5q0 76 -6.5 166t-29 168t-64.5 130.5t-113 52.5q-74 0 -128.5 -39t-93.5 -101.5t-64.5 -138.5t-40.5 -151.5t-21.5 -142t-6.5 -107.5z" />
<glyph unicode="P" d="M82 0l147 1413q80 16 160 24.5t146 8.5q106 0 182 -31t124 -84t70.5 -123.5t22.5 -148.5q0 -131 -42 -245t-116 -196.5t-175 -131t-220 -48.5q-25 0 -49.5 2t-48.5 6l-45 -446h-156zM297 584q10 -2 22 -2h23q100 0 182 34.5t138.5 95t87 142.5t30.5 178q0 55 -15 104.5 t-47 87.5t-83 59.5t-121 21.5q-29 0 -67.5 -5.5t-73.5 -9.5z" />
<glyph unicode="Q" d="M66 623q0 88 10 183t34.5 187t64.5 176t98.5 146.5t138.5 99.5t182 37q111 0 180.5 -55.5t107.5 -146.5t51 -206.5t13 -236.5q0 -133 -16.5 -265t-63.5 -246t-135 -196t-229 -112q12 -152 332 -152l-58 -155q-121 2 -199.5 25.5t-124.5 63.5t-65.5 94t-19.5 118 q-90 18 -148.5 77.5t-92.5 146.5t-47 194.5t-13 222.5zM223 643q0 -98 9.5 -191.5t35 -165t70.5 -114.5t117 -43q102 0 167.5 70.5t102.5 172t51.5 215t14.5 199.5q0 92 -6.5 184.5t-29 166t-64.5 120t-113 46.5q-74 0 -128.5 -35t-93.5 -91.5t-64.5 -127t-40.5 -144.5 t-21.5 -142.5t-6.5 -119.5z" />
<glyph unicode="R" d="M82 0l147 1413l151 23q71 10 132 10q104 0 181 -34t127 -89t75 -128t25 -151q0 -66 -17.5 -130t-51.5 -122.5t-84 -106.5t-114 -79l277 -606h-176l-256 551q-53 -12 -103 -14l-102 -5l-55 -532h-156zM307 672q16 -2 33 -2h33q113 0 188.5 35.5t120.5 92t64.5 126 t19.5 137.5q0 49 -15.5 93t-49 78t-85 54.5t-120.5 20.5q-31 0 -56.5 -3.5t-66.5 -7.5z" />
<glyph unicode="S" d="M90 90l78 156q55 -47 121.5 -69.5t134.5 -22.5q129 0 201.5 68.5t72.5 183.5q0 76 -35.5 129t-90 97t-117 85t-116.5 93t-90 119.5t-36 164.5q0 102 31.5 170.5t86 110.5t124 59.5t143.5 17.5q76 0 152.5 -19.5t148.5 -54.5l-74 -139q-43 25 -100 41t-117 16 q-43 0 -84 -7t-71.5 -28.5t-49 -59.5t-18.5 -99t37 -111.5t92 -98.5t119.5 -95t120 -103.5t92.5 -125t37 -156.5q0 -111 -37 -191t-100.5 -131t-150.5 -75.5t-185 -24.5q-82 0 -164 23.5t-156 76.5z" />
<glyph unicode="T" d="M135 1288l15 146h763l-14 -146h-295l-135 -1288h-156l136 1288h-314z" />
<glyph unicode="U" d="M49 379q0 23 1 49.5t4 70.5t11 114l18 181l28 266l39 374h155l-41 -390l-28 -274l-19 -183l-10 -115q-4 -44 -5 -67.5t-1 -42.5q0 -57 9 -101t30.5 -72.5t58.5 -44t94 -15.5q88 0 148.5 36t99.5 106.5t61.5 172t36.5 234.5l80 756h156l-80 -756q-18 -172 -54 -303 t-96.5 -218t-150.5 -131t-215 -44q-98 0 -161.5 26.5t-100.5 76.5t-52.5 124t-15.5 170z" />
<glyph unicode="V" d="M88 1434h158l182 -1217l373 1217h157l-466 -1434h-175z" />
<glyph unicode="W" d="M90 1434h158l8 -1160q25 80 41 172.5l32 187.5l30 185q15 90 38 168h146l61 -717l187 1164h157l-266 -1434h-195l-32 627l-121 -627h-215z" />
<glyph unicode="X" d="M41 0l401 727l-233 707h180l150 -574l235 574h174l-342 -709l211 -725h-178l-129 596l-299 -596h-170z" />
<glyph unicode="Y" d="M109 1434h172l145 -783l334 783h164l-439 -945l-51 -489h-153l49 494z" />
<glyph unicode="Z" d="M41 0l10 98l725 1190h-543l15 146h727l-10 -99l-725 -1190h620l-14 -145h-805z" />
<glyph unicode="[" d="M309 -190l185 1783h315l-14 -143h-166l-158 -1497h166l-14 -143h-314z" />
<glyph unicode="\" d="M94 1497h164l664 -1591h-164z" />
<glyph unicode="]" d="M207 -190l14 143h166l158 1497h-168l14 143h316l-187 -1783h-313z" />
<glyph unicode="^" d="M186 1141l275 303h127l207 -303h-174l-113 178l-150 -178h-172z" />
<glyph unicode="_" d="M51 0l15 152h907l-15 -152h-907z" />
<glyph unicode="`" d="M313 1337l90 162l349 -207l-58 -112z" />
<glyph unicode="a" d="M66 391q0 143 43 264t117.5 209t176 136.5t218.5 48.5q70 0 142.5 -17.5t147.5 -58.5l-100 -973h-152l9 82q-33 -25 -59.5 -42t-55.5 -29.5t-63.5 -17.5t-79.5 -5q-160 0 -252 102t-92 301zM221 403q0 -143 50.5 -206.5t172.5 -63.5q61 0 114.5 18.5t123.5 69.5l70 662 q-74 27 -148 26q-82 0 -151.5 -36.5t-120.5 -103.5t-81 -160t-30 -206z" />
<glyph unicode="b" d="M109 70l153 1466h150l-58 -555q121 59 234 59q76 0 139.5 -24.5t109.5 -73.5t71.5 -121.5t25.5 -167.5q0 -123 -33 -242.5t-97.5 -213t-163.5 -151.5t-230 -58q-72 0 -141.5 18.5t-159.5 63.5zM268 162q41 -23 78 -29t78 -6q98 0 166.5 50t111.5 126t62.5 164t19.5 164 q0 74 -19.5 125t-52 83.5t-77.5 48t-94 15.5q-102 0 -203 -69z" />
<glyph unicode="c" d="M131 436q0 127 36 237.5t100.5 192.5t155.5 129t202 47q74 0 141.5 -25.5t144.5 -82.5l-96 -107q-59 35 -104 49.5t-97 14.5q-68 0 -128 -32t-106 -88t-72.5 -133t-26.5 -169q0 -66 10 -128t35.5 -109.5t70.5 -76t115 -28.5t134.5 17.5t150.5 64.5l61 -125 q-104 -59 -186 -80.5t-168 -21.5q-80 0 -147.5 27.5t-118 85t-79 142t-28.5 199.5z" />
<glyph unicode="d" d="M66 391q0 141 42 261t115.5 208t175 137.5t222.5 49.5q35 0 71.5 -3.5t73.5 -13.5l53 506h152l-160 -1536h-152l9 82q-33 -25 -59.5 -42t-55.5 -29.5t-63.5 -17.5t-79.5 -5q-160 0 -252 102t-92 301zM221 403q0 -143 50.5 -206.5t172.5 -63.5q61 0 114.5 18.5t123.5 69.5 l70 662q-74 27 -148 26q-82 0 -151.5 -36.5t-120.5 -103.5t-81 -160t-30 -206z" />
<glyph unicode="e" d="M92 438q0 94 30 199.5t90 196t152.5 149.5t219.5 59q86 0 148.5 -24.5t102 -64.5t58 -91t18.5 -104q0 -80 -52 -146.5t-142 -114.5t-210 -76t-255 -28q0 -35 10 -80t38 -86t77 -69.5t129 -28.5q72 0 151.5 22.5t157.5 61.5l64 -123q-98 -53 -195.5 -80.5t-185.5 -27.5 q-86 0 -161 27.5t-129 84t-85 142t-31 202.5zM256 514q94 6 183 27.5t159 53.5t112 74t42 91q0 66 -43 101.5t-140 35.5q-59 0 -112.5 -25.5t-95.5 -74.5t-69.5 -121t-35.5 -162z" />
<glyph unicode="f" d="M-25 -246q70 0 119 34t85 91.5t59.5 130t40.5 150.5l75 723h-245l34 141h226l18 166q8 86 43 152.5t88 111.5t123 68.5t147 23.5q61 0 127 -19.5t132 -62.5l-91 -112q-47 27 -92 41t-92 14q-100 0 -161.5 -57.5t-73.5 -180.5l-17 -145h350l-34 -141h-330l-78 -721 q-16 -143 -64.5 -247.5t-112 -172.5t-134 -99.5t-129.5 -31.5z" />
<glyph unicode="g" d="M111 408q0 137 44 254.5t122.5 204.5t186 136.5t234.5 49.5q35 0 61.5 -4.5t54.5 -13.5t60 -21l78 -31l-100 -952q-12 -104 -48 -182t-88 -128.5t-119 -76t-140 -25.5q-78 0 -159 27.5t-155 85.5l82 123q59 -41 125 -64.5t127 -23.5q86 0 147.5 56t75.5 191l11 88 q-53 -59 -114.5 -86.5t-127.5 -27.5q-76 0 -141.5 32.5t-113.5 89t-75.5 133.5t-27.5 165zM264 424q0 -131 68.5 -212t177.5 -81q61 0 118.5 41t98.5 107l66 602q-25 8 -37.5 14t-20.5 9t-19 4t-32 1q-98 0 -176 -42t-132 -110.5t-83 -155.5t-29 -177z" />
<glyph unicode="h" d="M61 0l160 1536h152l-74 -700q53 104 147.5 159.5t190.5 55.5q57 0 111.5 -21.5t96.5 -64.5t66.5 -108.5t24.5 -156.5l-70 -700h-151l41 385q14 137 20 202.5t7 81t1 19.5q0 104 -61 152.5t-143 48.5q-47 0 -95.5 -20.5t-89.5 -56.5t-70.5 -82t-41.5 -95l-70 -635h-152z " />
<glyph unicode="i" d="M174 881l14 143h418l-92 -883h287l-15 -141h-438l92 881h-266zM416 1397v14q6 55 49 94t98 39q53 0 86 -33.5t33 -85.5v-14q-6 -55 -49 -94t-98 -39q-53 0 -86 34t-33 85z" />
<glyph unicode="j" d="M63 -389l15 143q184 0 284.5 6.5t150.5 40t65.5 107.5t29.5 209l80 764h-438l14 143h590l-84 -791q-16 -152 -30.5 -257t-41 -174.5t-70.5 -107.5t-117 -56.5t-182.5 -22.5t-265.5 -4zM666 1397v14q6 55 49 94t98 39q53 0 86 -33.5t33 -85.5v-14q-6 -55 -49 -94t-99 -39 q-53 0 -85.5 34t-32.5 85z" />
<glyph unicode="k" d="M82 0l160 1536h151l-100 -958q123 111 222 225.5t216 220.5h203l-361 -377l324 -647h-199l-247 537l-179 -187l-39 -350h-151z" />
<glyph unicode="l" d="M166 1393l14 143h459l-145 -1395h307l-15 -141h-456l143 1393h-307z" />
<glyph unicode="m" d="M27 0l106 1024h152l-15 -129q8 25 24.5 51.5t40 48t54.5 34.5t70 13q66 0 97.5 -47t35.5 -112q31 66 80 112.5t114 46.5q94 0 144.5 -57t50.5 -203q0 -10 -1 -32.5t-8 -98.5l-23 -228l-44 -423h-151l30 305q12 125 21.5 209t13.5 131t7 72.5t3 35.5v15q0 70 -16 96.5 t-51 26.5q-53 0 -92 -52.5t-47 -129.5l-78 -709h-152l32 297l21 201q8 80 13.5 125t7.5 67.5t3 28.5t1 10q0 78 -23.5 120t-60.5 42q-43 0 -68.5 -23.5t-40 -56.5t-20.5 -66.5t-8 -54.5l-72 -690h-151z" />
<glyph unicode="n" d="M61 0l107 1024h151l-20 -188q53 104 147.5 159.5t190.5 55.5q57 0 111.5 -21.5t96.5 -64.5t66.5 -108.5t24.5 -156.5l-70 -700h-151l41 385q14 137 20 202.5t7 81t1 19.5q0 104 -61 152.5t-143 48.5q-47 0 -95.5 -20.5t-89.5 -56.5t-70.5 -82t-41.5 -95l-70 -635h-152z " />
<glyph unicode="o" d="M98 442q0 113 31 220.5t90.5 191.5t147.5 135t204 51q190 0 269.5 -119.5t79.5 -328.5q0 -113 -24 -221.5t-76 -194.5t-137 -138t-210 -52q-80 0 -148.5 28.5t-118.5 86t-79 143t-29 198.5zM248 463q0 -160 64.5 -247t176.5 -87q78 0 132.5 42t88 107.5t49 143.5 t15.5 149q0 72 -11 131.5t-36 102.5t-67 67.5t-103 24.5q-86 0 -145.5 -41t-95 -104.5t-52 -140t-16.5 -148.5z" />
<glyph unicode="p" d="M63 -379l146 1403h149l-6 -66q25 14 48.5 30t49 28t56.5 19t74 7q92 0 158.5 -32.5t110.5 -88t64.5 -129t20.5 -155.5q0 -113 -28.5 -228.5t-91 -210t-164 -153.5t-247.5 -59q-47 0 -74.5 6t-76.5 18l-41 -389h-148zM266 150q53 -18 80 -25.5t68 -7.5q104 0 174.5 45 t113.5 114.5t62.5 155.5t19.5 170q0 61 -13 115.5t-42 95.5t-72 65.5t-100 24.5q-53 0 -106.5 -21.5t-112.5 -60.5z" />
<glyph unicode="q" d="M96 360q0 133 39 260.5t110.5 225.5t170 157.5t219.5 59.5q63 0 132 -19.5t140 -60.5l-143 -1362h-152l47 442q-66 -47 -124 -61t-121 -14q-84 0 -143.5 28.5t-98.5 77.5t-57.5 117.5t-18.5 148.5zM248 410q0 -123 49 -205t154 -82q59 0 111 21.5t112 66.5l71 680 q-29 12 -57.5 17t-56.5 5q-84 0 -154.5 -45t-121 -117.5t-79 -162.5t-28.5 -178z" />
<glyph unicode="r" d="M41 0l14 141h197l78 740h-158l14 143h310l-23 -195q35 86 118 145.5t193 59.5q47 0 105.5 -18.5t128.5 -59.5l-96 -129q-47 29 -93.5 42.5t-74.5 13.5q-109 0 -182.5 -65.5t-116.5 -170.5l-52 -506h310l-15 -141h-657z" />
<glyph unicode="s" d="M90 94l86 133q51 -37 115.5 -63.5t136.5 -26.5q49 0 96 7.5t87 25.5t65.5 52t32.5 87q0 47 -37 77t-92.5 53.5t-120 46t-119.5 54t-92 78t-37 115.5q0 84 34 142.5t88 95.5t122.5 54t140.5 17q78 0 152.5 -15t140.5 -36l-47 -151q-49 23 -121 37t-141 14 q-86 0 -145.5 -28.5t-69.5 -106.5q0 -41 36.5 -67.5t92 -49.5t121 -44.5t121 -54t92 -79.5t36.5 -121q0 -92 -41 -158.5t-105.5 -109.5t-145 -63.5t-158.5 -20.5q-94 0 -175 30.5t-149 75.5z" />
<glyph unicode="t" d="M51 883l35 141h295l20 199l156 37l-25 -236h342l-34 -141h-322l-41 -488q0 -78 13.5 -129t44 -80.5t82 -42t128.5 -12.5h34q17 0 38 2l-14 -143q-68 -6 -123 -6q-104 0 -174 28.5t-113 77.5t-61.5 115.5t-18.5 142.5q0 29 2 56.5t7 56.5l45 422h-316z" />
<glyph unicode="u" d="M106 248q0 2 1.5 7t3.5 28.5t7 70.5t13 133t22.5 216.5t32.5 320.5h152l-76 -739q0 -78 34 -113t101 -35q98 0 164 44t101 104l83 739h150l-104 -1024h-154l25 162l-51 -62q-26 -31 -58.5 -55.5t-74.5 -38.5t-99 -14q-129 0 -201 69.5t-72 186.5z" />
<glyph unicode="v" d="M106 1024h175l174 -819l325 819h168l-448 -1024h-138z" />
<glyph unicode="w" d="M86 1024h162l51 -793q27 88 45 191.5t34.5 209t35 207t43.5 185.5h149l64 -782l137 782h164l-244 -1024h-172l-43 737l-135 -737h-197z" />
<glyph unicode="x" d="M82 0l352 549l-186 475h186l107 -360l184 360h184l-297 -479l246 -545h-188l-158 432l-231 -432h-199z" />
<glyph unicode="y" d="M78 -360l209 413l-197 971h168l125 -797l405 797h164l-737 -1421z" />
<glyph unicode="z" d="M94 0l10 104l586 779h-465l15 141h669l-12 -109l-578 -772h553l-14 -143h-764z" />
<glyph unicode="{" d="M262 631l14 143q49 4 90.5 12.5t75.5 22.5q45 16 85 47t44 78v14q0 37 -18 69t-43 66q-33 43 -60.5 94.5t-27.5 116.5v17q0 8 2 16q10 111 64.5 171.5t113.5 88.5q72 37 191 39l8 -153q-41 0 -81 -5.5t-61 -15.5q-31 -14 -55 -43t-29 -82q0 -4 -1 -9t-1 -9 q0 -41 19.5 -74t42.5 -66l4 -6q33 -41 58.5 -88t25.5 -108v-16q0 -7 -2 -17q-4 -41 -29.5 -78t-60.5 -66.5t-76 -51t-76 -33.5q37 -10 72 -32t62.5 -50.5t45 -64.5t17.5 -73v-14q-8 -74 -46 -126t-85 -101q-37 -39 -66.5 -79t-36.5 -89v-19q0 -45 18.5 -70.5t43.5 -35.5 q16 -10 54 -14.5t83 -6.5l-43 -151q-121 2 -182 37q-49 23 -88 76t-39 145v19q0 9 2 20q10 86 52 144.5t89 105.5q35 35 61.5 70.5t30.5 74.5v10q0 43 -31.5 70t-72.5 43q-31 10 -71 20.5t-87 16.5z" />
<glyph unicode="|" d="M330 -190l184 1783h158l-187 -1783h-155z" />
<glyph unicode="}" d="M264 -70q41 2 80 6.5t57 14.5q43 20 67 57t24 84q0 39 -25 76t-43 68q-37 51 -61.5 98t-24.5 106q0 20 2 31q4 39 27.5 76t58.5 67.5t77 52t81 31.5q-39 14 -75 37t-62.5 51.5t-42 62.5t-15.5 71v14q10 76 47 129t84 100q41 41 68.5 79t34.5 85v16q0 47 -18.5 73 t-45.5 36q-16 10 -54 15.5t-81 5.5l41 153q59 -2 103 -12t79 -27q49 -27 89 -79t40 -144v-18q0 -8 -2 -19q-4 -39 -19.5 -72.5t-35 -62.5t-43 -55.5t-43.5 -53.5l-66 -85q-25 -32 -28 -64v-10q0 -43 31.5 -71t72.5 -44q29 -14 69 -22.5t89 -12.5l-15 -143q-53 -6 -94 -16.5 t-74 -20.5q-45 -18 -83.5 -47t-42.5 -76q0 -41 16 -72.5t37 -60.5q0 2 6 -12q35 -43 63.5 -94.5t28.5 -122.5v-17q0 -8 -2 -16q-6 -53 -23.5 -96t-42 -75t-55.5 -54.5t-61 -34.5q-68 -35 -187 -37z" />
<glyph unicode="~" d="M25 315q35 137 111.5 225.5t215.5 88.5q66 0 119 -34t97 -74t84 -72.5t77 -32.5q43 0 74 17.5t52.5 47t36.5 67.5l30 79l116 -45q-18 -61 -46.5 -116.5t-66.5 -97.5t-87.5 -67t-108.5 -25q-61 0 -110.5 33t-93.5 73t-89 72.5t-100 32.5q-45 0 -76 -21.5t-50.5 -53 t-31.5 -70.5t-20 -72z" />
<glyph unicode="&#xa0;" />
<glyph unicode="&#xa3;" d="M92 0l10 121q102 92 142.5 204.5t52.5 235.5l8 74h-155l14 143h141q2 47 7 93.5l10 91.5q10 94 48 168.5t93 128t123.5 82t140.5 28.5q63 0 124.5 -22.5t119.5 -71.5l-92 -115q-70 63 -177 64q-92 0 -153.5 -74t-77.5 -209q-4 -33 -6 -54.5t-3 -37.5t-3 -32.5t-4 -39.5 h295l-15 -143h-284q0 -16 -1 -36.5t-4 -37.5q-12 -117 -46.5 -226.5t-96.5 -189.5h571l-14 -145h-768z" />
<glyph unicode="&#xa5;" d="M43 213l16 143h312l10 109h-311l16 141h272l-233 750h178l178 -707l326 707h172l-373 -750h256l-16 -141h-311l-11 -109h312l-17 -143h-311l-21 -213h-151l18 213h-311z" />
<glyph unicode="&#xa9;" d="M35 584q0 117 42 225.5t116.5 192t176 134t218.5 50.5q98 0 180 -37t139.5 -100.5t89 -150.5t31.5 -185q0 -115 -42 -223.5t-115.5 -191.5t-175 -133t-220.5 -50q-100 0 -181 35.5t-138.5 98t-89 149t-31.5 186.5zM158 594q0 -78 23.5 -143.5t67.5 -112.5t105.5 -73.5 t139.5 -26.5q98 0 176 40.5t131 107.5t81.5 151t28.5 168q0 78 -23.5 143t-66.5 112.5t-104.5 74t-136.5 26.5q-98 0 -176 -41t-133.5 -107.5t-84 -150.5t-28.5 -168zM283 606q0 63 20.5 121.5t57 102.5t88 71t112.5 27q35 0 78 -17.5t88 -52.5l-65 -76q-41 23 -68 28t-49 5 q-41 0 -70 -19.5t-46 -49t-24.5 -64.5t-7.5 -68q0 -74 39 -107.5t84 -33.5q27 0 57.5 8t75.5 39l47 -88q-55 -41 -102 -56.5t-88 -15.5q-96 0 -161.5 66.5t-65.5 179.5z" />
<glyph unicode="&#xad;" d="M111 502l16 151h805l-17 -151h-804z" />
<glyph unicode="&#xae;" d="M129 926q0 92 38 173t101.5 140t143.5 94t163 35q78 0 143.5 -27.5t114 -77t75 -115t26.5 -140.5q0 -92 -38 -172t-99.5 -139.5t-141.5 -94.5t-163 -35q-78 0 -144.5 28t-115 76t-76 113.5t-27.5 141.5zM260 940q0 -49 18.5 -93t51 -77t77 -52.5t97.5 -19.5 q61 0 115.5 26t95.5 66.5t64.5 95t23.5 109.5q0 51 -18.5 95.5t-51.5 77t-77 51t-95 18.5q-61 0 -115.5 -25.5t-95.5 -66.5t-65.5 -95.5t-24.5 -109.5zM426 819l33 314q25 8 45 10t35 2q47 0 80.5 -26.5t33.5 -69.5q-4 -39 -16 -60.5t-35 -34.5l62 -135h-91l-45 105h-14 l-10 -105h-78zM522 999q20 0 34.5 5.5t18.5 29.5q0 23 -10 30t-24 7q-4 0 -6.5 -1t-6.5 -1z" />
<glyph unicode="&#x2000;" horiz-adv-x="821" />
<glyph unicode="&#x2001;" horiz-adv-x="1642" />
<glyph unicode="&#x2002;" horiz-adv-x="821" />
<glyph unicode="&#x2003;" horiz-adv-x="1642" />
<glyph unicode="&#x2004;" horiz-adv-x="546" />
<glyph unicode="&#x2005;" horiz-adv-x="409" />
<glyph unicode="&#x2006;" horiz-adv-x="272" />
<glyph unicode="&#x2007;" horiz-adv-x="272" />
<glyph unicode="&#x2008;" horiz-adv-x="204" />
<glyph unicode="&#x2009;" horiz-adv-x="327" />
<glyph unicode="&#x200a;" horiz-adv-x="90" />
<glyph unicode="&#x2010;" d="M111 502l16 151h805l-17 -151h-804z" />
<glyph unicode="&#x2011;" d="M111 502l16 151h805l-17 -151h-804z" />
<glyph unicode="&#x2012;" d="M111 502l16 151h805l-17 -151h-804z" />
<glyph unicode="&#x2013;" d="M49 498l17 147h927l-16 -147h-928z" />
<glyph unicode="&#x2014;" d="M-12 498l16 147h1030l-16 -147h-1030z" />
<glyph unicode="&#x2018;" d="M362 1020l195 479l145 -12l-124 -467h-216z" />
<glyph unicode="&#x2019;" d="M362 1032l125 465h215l-192 -479z" />
<glyph unicode="&#x201c;" d="M199 1020l194 479l146 -12l-125 -467h-215zM530 1020l195 479l141 -12l-125 -467h-211z" />
<glyph unicode="&#x201d;" d="M197 1032l125 465h215l-193 -479zM528 1032l125 465h215l-194 -479z" />
<glyph unicode="&#x2022;" d="M254 532q0 61 25.5 115.5t68.5 96.5t98.5 66t114.5 24q51 0 97.5 -19.5t79 -52.5t52 -78t19.5 -96q0 -63 -26.5 -118.5t-69.5 -96.5t-97.5 -64.5t-111.5 -23.5q-55 0 -100.5 19.5t-79 53t-52 78.5t-18.5 96z" />
<glyph unicode="&#x2026;" d="M0 123q0 37 14.5 68.5t39 55t56 37t66.5 13.5q61 0 100 -40t39 -99q-8 -78 -57 -126t-115 -48q-61 0 -102 40t-41 99zM375 123q0 37 14 68.5t39 55t56.5 37t66.5 13.5q61 0 100 -40t39 -99q-8 -78 -57 -126t-115 -48q-61 0 -102 40t-41 99zM745 123q0 37 14.5 68.5t39 55 t56.5 37t67 13.5q61 0 101 -40t40 -99q-8 -78 -58.5 -126t-115.5 -48q-61 0 -102.5 40t-41.5 99z" />
<glyph unicode="&#x202f;" horiz-adv-x="327" />
<glyph unicode="&#x205f;" horiz-adv-x="409" />
<glyph unicode="&#x20ac;" d="M10 502l17 145h96l10 101h-96l14 145h107q33 125 91 223t135 166t170 103.5t198 35.5q78 0 160.5 -21.5t158.5 -80.5l-88 -121q-61 41 -120.5 57.5t-125.5 16.5q-160 0 -265 -103.5t-157 -275.5h504l-92 -145h-442l-11 -101h400l-92 -145h-308q23 -190 116 -282.5 t237 -92.5q61 0 135 22.5t168 86.5l61 -125q-119 -76 -211 -102.5t-174 -26.5q-209 0 -341 133t-146 387h-109z" />
<glyph unicode="&#x2122;" d="M0 1264l14 139h381l-14 -139h-121l-55 -525h-139l55 525h-121zM369 739l84 664h190l55 -440l138 440h184l-47 -664h-146l45 430q-14 -35 -29 -88l-31 -110l-31 -110q-15 -52 -27 -83h-152l-37 385l-51 -424h-145z" />
<glyph unicode="&#xe000;" horiz-adv-x="1025" d="M0 1025h1025v-1025h-1025v1025z" />
<glyph unicode="&#xfb01;" horiz-adv-x="2457" d="M1403 881l14 143h418l-92 -883h287l-15 -141h-438l92 881h-266zM1645 1397v14q6 55 49 94t98 39q53 0 86 -33.5t33 -85.5v-14q-6 -55 -49 -94t-98 -39q-53 0 -86 34t-33 85zM-25 -246q70 0 119 34t85 91.5t59.5 130t40.5 150.5l75 723h-245l34 141h226l18 166 q8 86 43 152.5t88 111.5t123 68.5t147 23.5q61 0 127 -19.5t132 -62.5l-91 -112q-47 27 -92 41t-92 14q-100 0 -161.5 -57.5t-73.5 -180.5l-17 -145h350l-34 -141h-330l-78 -721q-16 -143 -64.5 -247.5t-112 -172.5t-134 -99.5t-129.5 -31.5z" />
<glyph unicode="&#xfb02;" horiz-adv-x="2457" d="M1395 1393l14 143h459l-145 -1395h307l-15 -141h-456l143 1393h-307zM-25 -246q70 0 119 34t85 91.5t59.5 130t40.5 150.5l75 723h-245l34 141h226l18 166q8 86 43 152.5t88 111.5t123 68.5t147 23.5q61 0 127 -19.5t132 -62.5l-91 -112q-47 27 -92 41t-92 14 q-100 0 -161.5 -57.5t-73.5 -180.5l-17 -145h350l-34 -141h-330l-78 -721q-16 -143 -64.5 -247.5t-112 -172.5t-134 -99.5t-129.5 -31.5z" />
<glyph unicode="&#xfb03;" horiz-adv-x="3686" d="M2632 881l14 143h418l-92 -883h287l-15 -141h-438l92 881h-266zM2874 1397v14q6 55 49 94t98 39q53 0 86 -33.5t33 -85.5v-14q-6 -55 -49 -94t-98 -39q-53 0 -86 34t-33 85zM1204 -246q70 0 119 34t85 91.5t59.5 130t40.5 150.5l75 723h-245l34 141h226l18 166 q8 86 43 152.5t88 111.5t123 68.5t147 23.5q61 0 127 -19.5t132 -62.5l-91 -112q-47 27 -92 41t-92 14q-100 0 -161.5 -57.5t-73.5 -180.5l-17 -145h350l-34 -141h-330l-78 -721q-16 -143 -64.5 -247.5t-112 -172.5t-134 -99.5t-129.5 -31.5zM-25 -246q70 0 119 34t85 91.5 t59.5 130t40.5 150.5l75 723h-245l34 141h226l18 166q8 86 43 152.5t88 111.5t123 68.5t147 23.5q61 0 127 -19.5t132 -62.5l-91 -112q-47 27 -92 41t-92 14q-100 0 -161.5 -57.5t-73.5 -180.5l-17 -145h350l-34 -141h-330l-78 -721q-16 -143 -64.5 -247.5t-112 -172.5 t-134 -99.5t-129.5 -31.5z" />
<glyph unicode="&#xfb04;" horiz-adv-x="3686" d="M2624 1393l14 143h459l-145 -1395h307l-15 -141h-456l143 1393h-307zM1204 -246q70 0 119 34t85 91.5t59.5 130t40.5 150.5l75 723h-245l34 141h226l18 166q8 86 43 152.5t88 111.5t123 68.5t147 23.5q61 0 127 -19.5t132 -62.5l-91 -112q-47 27 -92 41t-92 14 q-100 0 -161.5 -57.5t-73.5 -180.5l-17 -145h350l-34 -141h-330l-78 -721q-16 -143 -64.5 -247.5t-112 -172.5t-134 -99.5t-129.5 -31.5zM-25 -246q70 0 119 34t85 91.5t59.5 130t40.5 150.5l75 723h-245l34 141h226l18 166q8 86 43 152.5t88 111.5t123 68.5t147 23.5 q61 0 127 -19.5t132 -62.5l-91 -112q-47 27 -92 41t-92 14q-100 0 -161.5 -57.5t-73.5 -180.5l-17 -145h350l-34 -141h-330l-78 -721q-16 -143 -64.5 -247.5t-112 -172.5t-134 -99.5t-129.5 -31.5z" />
</font>
</defs>
</svg>
